<svg width="70" height="70" viewBox="0 0 70 70" fill="none" xmlns="http://www.w3.org/2000/svg">
<path d="M7.98962 10.5291L28.5058 19.4065C28.5058 19.4065 31.3101 18.1678 34.0407 16.9979C34.0407 16.9979 34.5573 16.7227 34.5573 16.1721C34.5573 16.1721 34.5573 15.5528 33.8931 15.2775C33.8931 15.2775 24.6682 11.2861 15.4433 7.36348L31.9743 0.27527L33.3765 0L34.7049 0.27527L59.5014 10.942C59.5014 10.942 62.0106 12.0431 62.0106 13.4882C62.0106 13.4882 62.0106 14.9334 59.5014 15.9657L40.0922 24.2926L59.5014 32.6195C59.5014 32.6195 62.0106 33.6518 62.0106 35.2346C62.0106 35.2346 62.0106 36.6109 59.5014 37.7808L34.7049 48.3099C34.7049 48.3099 34.1883 48.7228 33.3765 48.7228L31.9743 48.3099L15.4433 41.2905L33.8931 33.4453L34.5573 32.5507C34.5573 32.5507 34.5573 32.1378 34.0407 31.6561L28.5058 29.3163L7.98962 38.1937V28.1464L16.9193 24.2926L7.98962 20.5764V10.5291" fill="#00E1FF"/>
<path d="M42.1592 57.0726V65.8237C42.1592 65.8237 42.1592 69.3942 38.6828 69.4292H33.0262C33.0262 69.4292 32.2602 69.3942 31.9361 68.6941L30.9344 66.8039H37.3275C37.3275 66.8039 38.7417 66.7689 38.7417 65.4737V57.0726H42.1592Z" fill="#00E1FF"/>
<path d="M24.7183 57.0726L31.1408 69.4292H27.1341L26.044 67.1889H20.1518L21.0945 65.2987C21.0945 65.2987 21.4481 64.5636 22.1846 64.5636H24.7772L22.5087 60.013L17.9422 69.4292H13.9354L20.358 57.0726H24.7183Z" fill="#00E1FF"/>
<path d="M52.6179 57.0726L58.9816 69.4292H55.0338L53.9142 67.1889H47.9925L48.9647 65.2987C48.9647 65.2987 49.3477 64.5636 50.0843 64.5636H52.6769L50.4083 60.013L45.7829 69.4292H41.7762L48.1987 57.0726H52.6179Z" fill="#00E1FF"/>
<path d="M70 57.0726V65.8237C70 65.8237 69.9706 69.3942 66.5825 69.4292H60.867C60.867 69.4292 60.0716 69.3942 59.7475 68.6941L58.7753 66.8039H65.1978C65.1978 66.8039 66.6414 66.7689 66.6414 65.4737V57.0726H70Z" fill="#00E1FF"/>
<path d="M0 57.0722V69.4289H3.41737V64.1783V59.593H9.30982C10.5177 59.593 10.518 60.6429 10.518 60.6429C10.518 61.623 9.30983 61.6232 9.30982 61.6232H5.50925C4.80219 61.6232 4.41913 62.2884 4.41913 62.2884L3.41737 64.1783H9.25119C10.518 64.1783 10.518 65.4735 10.518 65.4735C10.518 66.7687 9.25119 66.8041 9.25119 66.8041H5.50925C4.80219 66.7691 4.41913 67.5037 4.41913 67.5037L3.41737 69.4289H9.30982C14.3182 69.3939 14.3186 66.0692 14.3186 66.0692C14.3186 63.8989 11.9616 63.1284 11.9616 63.1284C14.3185 62.4283 14.3186 60.2582 14.3186 60.2582C14.3186 57.0378 9.30983 57.0722 9.30982 57.0722H6.64716e-07H0Z" fill="#00E1FF"/>
</svg>
