<svg width="80" height="51" viewBox="0 0 80 51" fill="none" xmlns="http://www.w3.org/2000/svg">
<path d="M37.1338 20.5778C37.704 21.6877 37.6836 23.0215 37.0829 24.111L33.4581 30.3322L27.471 20.0178V20.0076C26.7278 18.7451 26.3001 17.2687 26.3001 15.7007C26.3001 14.1123 26.7379 12.6359 27.4914 11.3529L33.0202 1.73094C33.6922 0.692376 34.853 0.010182 36.1767 0H51.022L46.8678 7.1885H39.4247C39.4247 7.1885 38.7425 7.16813 38.1723 7.55505C37.6021 7.94197 37.4189 8.34925 37.4189 8.34925L34.4254 13.5726C34.2421 13.929 34.1301 14.3261 34.1301 14.7537C34.1301 15.1916 34.2421 15.5988 34.4355 15.9552L37.1338 20.5778ZM45.9616 21.6979C46.155 22.0542 46.267 22.4615 46.267 22.8993C46.267 23.327 46.155 23.7241 45.9717 24.0703L42.9782 29.2936C42.9782 29.2936 42.8051 29.7009 42.2248 30.0878C41.6546 30.4747 40.9724 30.4544 40.9724 30.4544H33.5293L29.3751 37.6429H44.2204C45.5441 37.6327 46.7049 36.9505 47.3769 35.9119L52.9057 26.2798C53.6592 25.007 54.097 23.5204 54.097 21.932C54.097 20.3538 53.6693 18.8876 52.9261 17.6149L46.939 7.3005L43.3142 13.5217C42.7135 14.6214 42.7033 15.945 43.2633 17.0549L45.9616 21.6979ZM47.611 48.67C46.9492 49.8206 46.2059 50.9202 44.2306 50.9202H33.2341C32.1242 50.9202 31.0246 49.9937 31.8289 48.5987L34.1606 44.5565C34.8123 43.4059 35.5657 42.3062 37.541 42.3062H48.5274C49.6373 42.3062 50.7369 43.2328 49.9325 44.6379L47.611 48.67ZM41.1862 49.2707C41.7564 49.2707 41.9906 48.9856 42.123 48.7616L44.2408 45.0859C44.4139 44.7906 44.8721 43.9354 43.6095 43.9354H40.5346C39.9644 43.9354 39.7302 44.2205 39.5978 44.4445L37.48 48.1303C37.3069 48.4256 36.8487 49.2707 38.1112 49.2707H41.1862ZM3.2786 45.2081C2.48441 46.6132 3.57388 47.5296 4.68372 47.5296H10.7522C12.0249 47.5296 11.5566 48.3849 11.3835 48.67C11.2104 48.9653 11.0373 49.2707 11.0373 49.2707H0.936744L0 50.91H15.4868L17.1363 48.0489C17.9305 46.6438 16.841 45.7274 15.7312 45.7274H9.66272C8.38997 45.7274 8.85834 44.8721 9.03144 44.587C9.04162 44.5666 9.41835 43.9557 9.41835 43.9557H19.132L20.0687 42.3164L7.03576 42.3062C5.05027 42.3062 4.30699 43.3957 3.65534 44.5565L3.2786 45.2081ZM25.8928 44.4445C26.0252 44.2205 26.2594 43.9354 26.8296 43.9354H32.9693L33.9061 42.2859H23.8259C21.8404 42.2859 21.0971 43.3754 20.4455 44.5361L18.1138 48.5885C17.3196 49.9937 18.4091 50.91 19.5189 50.91H28.9576L29.9045 49.2707C28.1023 49.2707 25.2819 49.2707 24.4063 49.2707C23.1335 49.2707 23.6019 48.4154 23.775 48.1303L25.8928 44.4445ZM51.9486 42.3062L51.0118 43.9354H55.7668L51.7551 50.91H57.1516L61.1633 43.9354H64.9612L65.8979 42.3062H51.9486ZM67.1605 42.3062L66.2237 43.9354H69.8689L65.8572 50.91H71.2537L75.2654 43.9354H79.0633L80 42.3062H67.1605Z" fill="#00E1FF"/>
</svg>
