<svg width="14" height="20" viewBox="0 0 14 20" fill="none" xmlns="http://www.w3.org/2000/svg">
<path fill-rule="evenodd" clip-rule="evenodd" d="M7.00009 20L5.8339 18.0563L1.17404 10.2899C-1.54309 5.76136 1.71893 0 7.00009 0C12.2812 0 15.5433 5.76135 12.8261 10.2899L8.16628 18.0563L7.00009 20ZM11.1112 9.26092L7.00009 16.1127L2.88903 9.26093C0.97172 6.06542 3.27352 2 7.00009 2C10.7267 2 13.0285 6.06541 11.1112 9.26092ZM7.00009 9C8.10466 9 9.00009 8.10457 9.00009 7C9.00009 5.89543 8.10466 5 7.00009 5C5.89552 5 5.00009 5.89543 5.00009 7C5.00009 8.10457 5.89552 9 7.00009 9Z" fill="white"/>
</svg>
