<svg width="100" height="46" viewBox="0 0 100 46" fill="none" xmlns="http://www.w3.org/2000/svg">
<path fill-rule="evenodd" clip-rule="evenodd" d="M39.4389 37.0353C37.8728 34.1475 38.7133 30.2322 40.6286 27.7805C42.15 25.9103 44.3986 25.5689 46.9955 26.0275L47.0686 26.0703L46.6192 29.2475C45.9364 29.0278 44.9808 29.0144 44.2533 29.333C42.6578 30.4489 42.4122 32.4958 42.5847 34.3083C42.6725 34.8886 43.0422 35.4397 43.5794 35.6853C44.145 35.8747 45.0372 35.8747 45.6019 35.6853L45.1972 38.7028C43.1503 39.56 40.6647 39.2039 39.4389 37.0353Z" fill="white"/>
<path fill-rule="evenodd" clip-rule="evenodd" d="M56.3725 26.0078L60.1222 26L57.9758 39.0567H54.3052L56.3725 26.0078Z" fill="white"/>
<path fill-rule="evenodd" clip-rule="evenodd" d="M47.6916 39.0597L49.2297 29.1575L47.0891 29.1595L47.4947 26.002H55.9524L55.4802 29.1617L53.1158 29.1595L51.3897 39.0575L47.6916 39.0597Z" fill="white"/>
<path fill-rule="evenodd" clip-rule="evenodd" d="M34.7972 29.8705C34.8117 29.3758 34.8986 28.8183 34.4209 28.5569C33.9925 28.3258 33.5353 28.4489 33.5353 28.4489L33.115 31.3489C34.0434 31.5672 34.6664 30.5814 34.7972 29.8705ZM24.152 34.4041V30.3258L22.8542 34.4244L24.152 34.4041ZM32.6431 34.2986L31.8811 39.0555L24.2009 39.0625L24.1942 37.3508L21.9453 37.3519L21.3659 39.0555L17.5881 39.0575L22.6006 26.0158L27.0806 26.005L28.0245 38.6208L30.0686 26.005C32.9053 26.2586 36.9453 24.9711 38.4236 28.0166C39.075 29.5836 38.525 31.3539 37.6836 32.6594C37.2906 33.1111 36.6978 33.5575 36.1467 33.9358L37.6261 39.0625L33.7672 39.0694L32.6431 34.2986Z" fill="white"/>
<path fill-rule="evenodd" clip-rule="evenodd" d="M60.6587 37.0389C59.0926 34.1525 59.9331 30.2342 61.8484 27.7847C63.3706 25.9142 65.6187 25.5728 68.2153 26.0295L68.2884 26.0733L67.8389 29.2492C67.1573 29.0328 66.2006 29.0181 65.4731 29.3372C63.8798 30.4545 63.632 32.4986 63.8045 34.3125C63.8926 34.8928 64.262 35.4417 64.8001 35.6914C65.3648 35.8786 66.257 35.8786 66.822 35.6914L66.4173 38.7064C64.3712 39.5636 61.8845 39.2078 60.6587 37.0389Z" fill="white"/>
<path fill-rule="evenodd" clip-rule="evenodd" d="M77.5222 38.4764L77.8831 35.7625C77.3175 35.9516 76.4242 35.9516 75.8586 35.7625C75.3222 35.5158 74.9517 34.9639 74.8661 34.3847C74.6914 32.5725 74.9381 30.5258 76.5336 29.4111C77.26 29.0914 78.2156 29.105 78.8972 29.3214L79.3478 26.1461L79.2747 26.1025C76.6797 25.6472 74.4289 25.9864 72.907 27.8577C70.9914 30.3094 70.1508 34.2255 71.7181 37.1122C72.7908 39.0089 75.022 39.4572 76.9089 39.0597L77.1439 39.0566C78.4117 39.0489 81.3058 39.0575 81.3058 39.0575L81.8714 37.3608L84.0686 37.3697L84.1642 39.0625L87.9117 39.0722L86.8528 25.9902L82.3631 26.0077L77.5478 38.3925L77.5222 38.4764ZM77.4764 38.7797L77.5167 38.4822L77.4764 38.7797ZM82.7708 34.4333L84.0247 30.2905V34.4333H82.7708ZM92.7195 39.0372L94.3303 29.145L96.6367 29.1672L97.0783 25.998H88.7678L88.3172 29.1733L90.4353 29.1089L88.9336 39.0372H92.7195Z" fill="white"/>
<path fill-rule="evenodd" clip-rule="evenodd" d="M98.7381 27.1428C98.9215 27.1428 99.0864 27.1311 99.0864 26.9089C99.0864 26.7314 98.9276 26.6983 98.7742 26.6983H98.477V27.1428H98.7381ZM98.477 27.9514H98.2603V26.515H98.8076C99.1478 26.515 99.3145 26.6397 99.3145 26.9245C99.3145 27.18 99.1537 27.292 98.9428 27.3183L99.3506 27.9514H99.1067L98.7284 27.3281H98.477V27.9514ZM98.7423 28.2722C99.3048 28.2722 99.7495 27.8295 99.7495 27.2297C99.7495 26.6397 99.3048 26.195 98.7423 26.195C98.1695 26.195 97.7259 26.6397 97.7259 27.2297C97.7259 27.8295 98.1695 28.2722 98.7423 28.2722ZM97.4753 27.2297C97.4753 26.515 98.0556 25.9883 98.7423 25.9883C99.4209 25.9883 100 26.515 100 27.2297C100 27.9514 99.4209 28.4781 98.7423 28.4781C98.0556 28.4781 97.4753 27.9514 97.4753 27.2297Z" fill="white"/>
<path fill-rule="evenodd" clip-rule="evenodd" d="M81.6395 3.80139C81.6395 3.80139 82.7414 4.80361 82.5678 4.82111C82.3983 4.83889 80.9567 4.68472 80.9089 4.69833C80.9089 4.69917 80.9089 4.69917 80.9089 4.69917C80.9083 4.69917 80.9083 4.69833 80.9089 4.69833C80.9706 4.06833 79.1831 3.35056 79.1831 3.35056L81.6395 3.80139ZM70.7311 16.0553C71.3514 13.7306 73.9845 10.4011 74.0517 10.4158C76.6095 11.4681 80.635 12.7875 80.9072 12.725C81.2894 12.6353 81.1753 12.0103 81.1753 12.0103C81.1753 12.0103 81.462 11.9303 81.9711 11.6328C82.4792 11.3344 82.1611 10.6303 82.1611 10.6303C81.5761 11.1336 80.5689 10.8936 80.5689 10.8936C80.6583 10.6722 77.8842 8.82139 77.9592 8.86028C78.0156 8.88778 81.5147 8.01694 81.5147 8.01694C82.5739 8.50722 82.1856 9.91833 81.6111 10.3467C82.2225 10.4342 83.5975 9.34611 83.8531 8.68C85.8306 8.45861 85.7595 6.51806 85.7595 6.51806C85.7595 6.51806 85.9633 6.84972 86.1606 6.18639C86.3386 5.58667 83.6017 4.61056 83.1003 4.43694C83.1372 4.39611 83.1608 4.23222 83.0936 3.71361C83.0036 3.00944 78.6894 0.954722 77.5906 1.57972C75.2519 1.55639 70.665 0 70.665 0L71.0247 2.23417C68.2025 2.9975 58.8378 4.51805 47.7025 9.25833C35.9614 11.1961 32.4039 11.2153 11.0447 8.725C23.7728 12.7758 36.84 13.8317 36.84 13.8317C13.8456 23.5047 0 35.2994 0 35.2994C15.3844 27.2169 44.0894 14.7864 61.8492 16.6892C61.8492 16.6892 59.7078 22.7508 59.7897 22.7156C69.3347 18.57 97.0161 19.1525 97.0161 19.1525C97.0161 19.1525 82.17 15.1569 70.7311 16.0553Z" fill="white"/>
<path fill-rule="evenodd" clip-rule="evenodd" d="M94.4425 41.0744H94.0886L93.9325 42.0514H93.7308L93.8867 41.0744H93.5347L93.5608 40.9086H94.4678L94.4425 41.0744ZM95.1728 41.7472L95.6283 40.9086H95.9375L95.7561 42.0514H95.5531L95.7022 41.1202H95.6967L95.1895 42.0514H95.05L94.8414 41.1202H94.8356L94.6864 42.0514H94.4845L94.6678 40.9086H94.9789L95.1728 41.7472Z" fill="white"/>
<path fill-rule="evenodd" clip-rule="evenodd" d="M36.1874 44.0933L36.1661 44.2299C36.0949 44.6647 36.1749 44.9427 36.6683 44.9427C36.9522 44.9427 37.2544 44.7613 37.3169 44.3722C37.3849 43.9511 37.1961 43.7949 36.6138 43.5802C35.8277 43.2958 35.5002 42.9497 35.6249 42.178C35.7694 41.2761 36.3933 40.8169 37.2769 40.8169C38.1077 40.8169 38.6538 41.1727 38.5094 42.0619L38.4899 42.1897H37.5947C37.6641 41.7569 37.5558 41.5033 37.1997 41.5033C36.7766 41.5033 36.6244 41.7705 36.5805 42.0424C36.5338 42.3263 36.5913 42.5019 36.9611 42.6716L37.6299 42.9836C38.2822 43.2888 38.4061 43.6458 38.3174 44.2086C38.1602 45.1894 37.4924 45.6311 36.4791 45.6311C35.4222 45.6311 35.0858 45.1377 35.2222 44.2808L35.2524 44.0933H36.1874Z" fill="white"/>
<path fill-rule="evenodd" clip-rule="evenodd" d="M39.6377 40.9064H40.573L40.2872 42.6775H41.3783L41.6622 40.9064H42.5955L41.8533 45.5405H40.9202L41.2489 43.483H40.1594L39.8289 45.5405H38.8939L39.6377 40.9064Z" fill="white"/>
<path fill-rule="evenodd" clip-rule="evenodd" d="M43.9697 43.795H44.8775L44.7633 41.7122H44.7508L43.9697 43.795ZM44.31 40.9064H45.4645L45.9483 45.5405H44.975L44.9183 44.5614H43.6858L43.3142 45.5405H42.3411L44.31 40.9064Z" fill="white"/>
<path fill-rule="evenodd" clip-rule="evenodd" d="M47.7872 42.9308H48.1763C48.625 42.9308 48.9088 42.7358 48.9886 42.2367C49.0569 41.8094 48.865 41.5941 48.4436 41.5941H48.0008L47.7872 42.9308ZM47.1769 40.9064H48.903C49.6686 40.9064 50.0722 41.3103 49.9444 42.1011C49.8469 42.7164 49.5327 43.1328 48.9897 43.243L48.9886 43.2555C49.61 43.3397 49.6519 43.6917 49.5075 44.6697C49.4375 45.1572 49.4208 45.4078 49.5805 45.5014L49.5758 45.5405H48.5636C48.4944 45.4078 48.5022 45.2342 48.5236 45.053L48.6405 44.1655C48.6863 43.8019 48.5605 43.5803 48.1833 43.5803H47.6838L47.37 45.5405H46.4358L47.1769 40.9064Z" fill="white"/>
<path fill-rule="evenodd" clip-rule="evenodd" d="M53.6986 40.9064L53.5758 41.673H51.9211L51.7464 42.7633H53.303L53.1819 43.5289H51.6236L51.4239 44.7741H53.1447L53.0222 45.5405H50.3666L51.1086 40.9064H53.6986Z" fill="white"/>
<path fill-rule="evenodd" clip-rule="evenodd" d="M56.7833 44.9428C57.3341 44.9428 57.5019 44.4697 57.7 43.2236C57.8989 41.9841 57.8852 41.5044 57.333 41.5044C56.7822 41.5044 56.6147 41.9841 56.4166 43.2236C56.2166 44.4697 56.2314 44.9428 56.7833 44.9428ZM57.4436 40.8147C58.845 40.8147 58.8613 41.8164 58.6341 43.2236C58.4097 44.6316 58.0752 45.6311 56.6739 45.6311C55.2719 45.6311 55.2561 44.6316 55.4814 43.2236C55.7077 41.8164 56.043 40.8147 57.4436 40.8147Z" fill="white"/>
<path fill-rule="evenodd" clip-rule="evenodd" d="M60.6928 40.9064L60.1761 44.1383C60.1016 44.5983 60.1564 44.9428 60.5933 44.9428C61.0261 44.9428 61.1919 44.5983 61.2664 44.1383L61.785 40.9064H62.7172L62.1994 44.1383C62.0111 45.3192 61.2408 45.6311 60.4819 45.6311C59.7233 45.6311 59.0439 45.3778 59.2419 44.1383L59.7586 40.9064H60.6928Z" fill="white"/>
<path fill-rule="evenodd" clip-rule="evenodd" d="M64.2433 42.9308H64.6325C65.0811 42.9308 65.3639 42.7358 65.4439 42.2367C65.5122 41.8094 65.32 41.5941 64.8978 41.5941H64.4569L64.2433 42.9308ZM63.6328 40.9064H65.3589C66.1244 40.9064 66.5283 41.3103 66.3994 42.1011C66.3011 42.7164 65.988 43.1328 65.4455 43.243L65.4428 43.2555C66.0661 43.3397 66.1069 43.6917 65.9636 44.6697C65.8914 45.1572 65.8766 45.4078 66.0366 45.5014L66.0308 45.5405H65.0186C64.9483 45.4078 64.9564 45.2342 64.9816 45.053L65.0966 44.1655C65.1416 43.8019 65.0147 43.5803 64.6383 43.5803H64.14L63.8253 45.5405H62.8908L63.6328 40.9064Z" fill="white"/>
<path fill-rule="evenodd" clip-rule="evenodd" d="M69.722 43.003H70.1373C70.507 43.003 70.7945 42.7827 70.8717 42.3097C70.9431 41.8544 70.8034 41.595 70.3364 41.595H69.9464L69.722 43.003ZM69.1234 40.9086H70.7584C71.7045 40.9086 71.9178 41.6016 71.8078 42.295C71.6537 43.2555 70.9926 43.6908 70.1109 43.6908H69.6109L69.3142 45.5405H68.3812L69.1234 40.9086Z" fill="white"/>
<path fill-rule="evenodd" clip-rule="evenodd" d="M72.9889 43.795H73.8964L73.7814 41.7122H73.7697L72.9889 43.795ZM73.3272 40.9064H74.4817L74.9675 45.5405H73.993L73.9355 44.5614H72.7028L72.3317 45.5405H71.3594L73.3272 40.9064Z" fill="white"/>
<path fill-rule="evenodd" clip-rule="evenodd" d="M76.438 44.0933L76.4144 44.2299C76.3463 44.6647 76.4263 44.9427 76.9174 44.9427C77.2036 44.9427 77.5047 44.7613 77.568 44.3722C77.6352 43.9511 77.4463 43.7949 76.863 43.5802C76.0791 43.2958 75.7513 42.9497 75.8749 42.178C76.0205 41.2761 76.6455 40.8169 77.5283 40.8169C78.358 40.8169 78.9041 41.1727 78.7627 42.0619L78.7413 42.1897H77.846C77.9152 41.7569 77.806 41.5033 77.4499 41.5033C77.028 41.5033 76.8747 41.7705 76.8308 42.0424C76.7849 42.3263 76.8427 42.5019 77.211 42.6716L77.881 42.9836C78.5324 43.2888 78.6574 43.6458 78.5677 44.2086C78.4105 45.1894 77.7427 45.6311 76.7297 45.6311C75.6724 45.6311 75.3358 45.1377 75.4724 44.2808L75.5035 44.0933H76.438Z" fill="white"/>
<path fill-rule="evenodd" clip-rule="evenodd" d="M79.968 44.0933L79.9447 44.2299C79.8764 44.6647 79.9544 44.9427 80.4486 44.9427C80.7325 44.9427 81.035 44.7613 81.0983 44.3722C81.1655 43.9511 80.9755 43.7949 80.393 43.5802C79.6091 43.2958 79.2814 42.9497 79.4053 42.178C79.5508 41.2761 80.1747 40.8169 81.0583 40.8169C81.888 40.8169 82.4344 41.1727 82.2928 42.0619L82.2714 42.1897H81.3753C81.4444 41.7569 81.3364 41.5033 80.978 41.5033C80.5569 41.5033 80.405 41.7705 80.3611 42.0424C80.3153 42.3263 80.3716 42.5019 80.7414 42.6716L81.4111 42.9836C82.0628 43.2888 82.1875 43.6458 82.0969 44.2086C81.9408 45.1894 81.2728 45.6311 80.2597 45.6311C79.2016 45.6311 78.8661 45.1377 79.0025 44.2808L79.0336 44.0933H79.968Z" fill="white"/>
<path fill-rule="evenodd" clip-rule="evenodd" d="M82.7208 45.5405L83.463 40.9064H84.3972L83.6561 45.5405H82.7208Z" fill="white"/>
<path fill-rule="evenodd" clip-rule="evenodd" d="M86.25 44.9428C86.8 44.9428 86.9658 44.4697 87.1667 43.2236C87.3647 41.9841 87.3519 41.5044 86.7992 41.5044C86.2481 41.5044 86.0806 41.9841 85.8825 43.2236C85.6825 44.4697 85.6972 44.9428 86.25 44.9428ZM86.9092 40.8147C88.3106 40.8147 88.3281 41.8164 88.1008 43.2236C87.8758 44.6316 87.5411 45.6311 86.14 45.6311C84.7386 45.6311 84.7219 44.6316 84.9475 43.2236C85.1736 41.8164 85.5089 40.8147 86.9092 40.8147Z" fill="white"/>
<path fill-rule="evenodd" clip-rule="evenodd" d="M90.4259 40.9064L91.0461 44.0797H91.0589L91.5678 40.9064H92.4239L91.682 45.5405H90.6189L89.9956 42.2961H89.9823L89.4623 45.5405H88.6061L89.3481 40.9064H90.4259Z" fill="white"/>
<path fill-rule="evenodd" clip-rule="evenodd" d="M93.7002 44.5284L93.5375 45.5406H92.6802L92.8441 44.5284H93.7002Z" fill="white"/>
</svg>
