<svg width="140" height="26" viewBox="0 0 140 26" fill="none" xmlns="http://www.w3.org/2000/svg">
<path fill-rule="evenodd" clip-rule="evenodd" d="M15.9799 22.5253C11.5058 22.5253 7.55263 20.8394 5.17263 18.2619C7.69263 17.3961 10.9023 16.6703 13.4562 16.6703C15.4479 16.6703 18.3931 17.2097 18.3931 17.2097C21.7457 17.7498 24.9819 17.5192 26.4062 14.0538C26.5786 13.5822 26.6847 13.4805 26.0687 13.6191C20.8519 14.5047 18.5935 13.7546 16.1685 13.5203C12.7813 13.1909 11.3754 13.5623 11.3754 13.5623C11.3754 13.5623 11.7512 12.5624 12.0569 11.8307C12.3274 11.2413 14.2085 11.2074 18.4513 11.6789C22.5282 12.1321 26.7776 11.6974 28.9549 10.8935C29.078 11.4402 29.1428 12.0024 29.1428 12.5764C29.1428 18.0733 23.2533 22.5238 15.9769 22.5238L15.9784 22.5253H15.9799ZM2.81253 12.5779C2.81253 7.08695 8.70873 2.63568 15.9799 2.63568C20.3774 2.63568 24.2679 4.26189 26.6589 6.76053C25.7394 6.95653 24.6665 7.12453 23.5392 7.19379C19.6545 7.4259 14.7464 6.42305 11.6856 6.86221C8.40368 7.33379 7.79505 9.20389 7.17021 10.7992C6.73916 11.9044 5.65011 14.3861 4.43874 17.3718C3.402 15.9497 2.81032 14.3154 2.81032 12.5772H2.81179L2.81253 12.5779ZM29.498 5.84316C29.498 5.84832 29.4943 5.85495 29.4884 5.86158C26.6575 2.33947 21.6654 0 15.9799 0C7.15473 0 0 5.63463 0 12.5779C0 19.5263 7.15473 25.1595 15.9799 25.1595C24.8043 25.1595 31.9568 19.5263 31.9568 12.5772C31.9568 10.1117 31.0557 7.81274 29.498 5.87189V5.84242V5.84316ZM136.163 14.8599C136.163 15.2136 136.023 15.5673 135.734 15.8384C135.446 16.1059 135.064 16.2363 134.683 16.2363H129.475C129.098 16.2363 128.713 16.1059 128.423 15.8384C128.141 15.5658 127.996 15.2121 127.996 14.8599L127.999 11.2663C127.999 10.9126 128.143 10.5589 128.432 10.2922C128.723 10.0196 129.098 9.88695 129.481 9.88695H134.684C135.06 9.88695 135.447 10.0196 135.731 10.2922C136.025 10.5589 136.164 10.9112 136.167 11.2663V14.8599H136.164H136.163ZM138.908 8.11484C138.215 7.46642 137.316 7.12011 136.409 7.09063V7.08326H127.743V7.09063C126.837 7.12011 125.94 7.46642 125.251 8.11484C124.521 8.78758 124.159 9.67326 124.159 10.5567V15.6159C124.159 16.5001 124.523 17.3828 125.252 18.0563C125.942 18.7033 126.839 19.054 127.745 19.0857V19.0916H136.41V19.0857C137.319 19.054 138.218 18.7025 138.909 18.0563C139.636 17.3828 140 16.4994 140 15.6159V10.5567C140 9.67253 139.636 8.78832 138.909 8.11484H138.908ZM104.328 15.8384C104.041 16.1059 103.66 16.2363 103.279 16.2363H98.0685C97.6927 16.2363 97.3111 16.1059 97.0222 15.8384C96.7319 15.5658 96.586 15.2121 96.586 14.8599L96.5934 11.2663C96.5934 10.9126 96.7356 10.5589 97.0252 10.2922C97.3155 10.0196 97.6972 9.88695 98.0752 9.88695H103.277C103.66 9.88695 104.036 10.0196 104.327 10.2922C104.615 10.5589 104.762 10.9112 104.762 11.2663L104.765 14.8599C104.765 15.2136 104.618 15.5673 104.33 15.8384H104.329H104.328ZM105.004 7.09211V7.08474H96.3443V7.09211C95.438 7.11937 94.5339 7.46642 93.8405 8.11484C93.1184 8.78758 92.7574 9.67326 92.7574 10.5567V15.6159C92.7574 16.5001 93.1184 17.3828 93.8405 18.0563C94.5332 18.7033 95.4395 19.054 96.3443 19.0857V19.0916H105.004V19.0857C105.916 19.054 106.816 18.7025 107.506 18.0563C108.228 17.3828 108.594 16.4994 108.594 15.6159V10.5567C108.594 9.67253 108.23 8.78832 107.507 8.11484C106.819 7.46642 105.918 7.12011 105.006 7.09063L105.004 7.09211H105.004ZM40.4674 8.11411C39.7453 8.78684 39.379 9.67253 39.379 10.5553V15.6152C39.379 16.4994 39.746 17.3821 40.4681 18.0556C41.1946 18.732 42.1437 19.0908 43.0913 19.0908H54.5492V16.2348H44.6976C44.3203 16.2348 43.9423 16.1044 43.6527 15.8369C43.3632 15.5643 43.218 15.2106 43.218 14.8584L43.2202 11.2648C43.2202 10.9112 43.3661 10.5575 43.6549 10.29C43.9453 10.0188 44.3255 9.88474 44.6998 9.88474H54.5492V7.08179H43.0913C42.1429 7.08179 41.1939 7.43547 40.4681 8.11337L40.4674 8.11411ZM57.0021 8.11189C56.2785 8.78463 55.9204 9.67179 55.9204 10.5508L55.9167 19.0908H59.8979V15.7529H71.008V12.7982H59.8979V11.2656C59.8979 10.9119 60.0438 10.5582 60.3326 10.2907C60.6215 10.0196 61.0054 9.88547 61.3804 9.88547H71.008V7.08253H59.6238C58.6733 7.08253 57.7249 7.43621 57.0028 8.11116L57.0021 8.11189ZM87.4072 6.90347H76.1777C75.2308 6.90347 74.2818 7.25716 73.5597 7.9299C72.8376 8.60558 72.4743 9.48832 72.4743 10.3718V19.0916H76.3354V11.2147C76.3354 10.8611 76.4791 10.3777 76.7686 10.1095C77.0582 9.83905 77.4406 9.70421 77.8201 9.70421H79.7683V19.0916H83.6412V9.70421H85.666C86.0455 9.70421 86.5207 9.83905 86.8096 10.1095C87.0947 10.3762 87.2532 10.7269 87.2532 11.0821V19.0916H91.1201V10.3674C91.1201 9.48463 90.7517 8.60411 90.0281 7.9299C89.3045 7.25642 88.3555 6.90347 87.4094 6.90347H87.4079H87.4072ZM109.764 9.89726H114.491V19.0916H118.47V9.89874H123.137V7.084H109.766V9.89874L109.764 9.89726Z" fill="white"/>
</svg>
