<svg width="20" height="16" viewBox="0 0 20 16" fill="none" xmlns="http://www.w3.org/2000/svg">
<path d="M6.96104 11.6228C9.40251 11.3556 10.9384 10.686 10.9697 9.69839C10.9933 8.94914 9.72131 8.73061 9.7085 8.72841L6.04928 8.10303L5.18537 10.1859C5.16295 10.2355 5.15234 10.2934 5.15234 10.3528C5.15234 10.5895 5.34366 10.782 5.58161 10.782H6.4065V11.6822C6.62103 11.6654 6.7311 11.648 6.96104 11.6228Z" fill="white"/>
<path d="M4.28219 1.53882C4.28219 1.53882 3.44628 2.20382 2.58356 3.15659C1.23074 4.6505 0.13288 6.27208 0 6.49761L0.919556 6.64771C1.316 6.01092 2.18132 4.76777 3.36103 3.52081C4.22815 2.60406 5.06406 1.99729 5.06406 1.99729L4.28219 1.53882Z" fill="white"/>
<path d="M12.1563 0.00509331C9.39807 -0.0823596 7.18153 0.967874 5.50712 2.26926C6.88395 3.09276 12.3489 6.36033 12.3489 6.36033C12.5602 6.51343 12.6354 6.75177 12.6184 6.95369C12.5826 7.38495 12.262 7.61689 11.9074 7.58868C11.8672 7.58547 4.42547 6.22065 2.26276 5.82261C1.96538 6.27548 1.77727 6.61649 1.69922 6.76578L9.80532 8.15142C9.87596 8.16283 11.5946 8.4548 11.5548 9.71636C11.5127 11.057 9.86156 11.8941 7.02504 12.2043C6.08887 12.3067 5.27478 12.3399 4.61218 12.3399C4.53974 12.3399 3.86713 12.3395 3.79828 12.3387C3.92476 13.6321 5.12609 15.2535 5.631 15.6678L15.7845 15.6554C15.7845 15.6554 19.7459 13.8026 19.9897 8.43959C20.2134 3.51842 16.7717 0.151382 12.1563 0.00509331Z" fill="white"/>
<path d="M11.5078 6.91228C11.5078 6.70756 11.6747 6.54126 11.8792 6.54126C12.0836 6.54126 12.2503 6.70736 12.2503 6.91228C12.2503 7.11761 12.0838 7.28331 11.8792 7.28331C11.6747 7.28351 11.5078 7.11761 11.5078 6.91228Z" fill="white"/>
</svg>
