<svg width="22" height="14" viewBox="0 0 22 14" fill="none" xmlns="http://www.w3.org/2000/svg">
<path d="M18.4082 6.28571C18.2376 6.28571 18.071 6.30165 17.9069 6.32478L17.5387 5.24678C17.8209 5.19402 18.1107 5.16327 18.4082 5.16327H19.3061C19.3061 3.81633 17.9592 2.46939 16.6122 2.46939L16.1929 1.30541C15.9388 0.561225 15.154 0 14.3673 0H13.4694C13.0974 0 12.7959 0.30149 12.7959 0.673469C12.7959 1.04545 13.0974 1.34694 13.4694 1.34694H14.3673C14.5737 1.34694 14.8516 1.54584 14.9182 1.74069L15.167 2.46939H11.2245C10.3458 2.46939 9.46988 3.04386 8.965 3.81633H2.69388C1.34694 3.81633 0 5.16304 0 6.5102C0.919061 5.67802 2.189 5.16327 3.59184 5.16327C5.96649 5.16327 7.92494 6.9208 8.25247 9.20408H7.11835C6.80294 7.54286 5.34533 6.28571 3.59184 6.28571C1.60802 6.28571 0 7.89396 0 9.87755C0 11.8611 1.60802 13.4694 3.59184 13.4694C5.34533 13.4694 6.80294 12.2122 7.11835 10.551H13.6939V9.87755C13.6939 8.04729 14.7393 6.46351 16.2641 5.68251L16.6315 6.75827C15.5482 7.37696 14.8163 8.54094 14.8163 9.87755C14.8163 11.8611 16.4246 13.4694 18.4082 13.4694C20.3918 13.4694 22 11.8611 22 9.87755C22 7.89396 20.3918 6.28571 18.4082 6.28571ZM3.59184 12.1224C2.354 12.1224 1.34694 11.1154 1.34694 9.87755C1.34694 8.63971 2.354 7.63265 3.59184 7.63265C4.59508 7.63265 5.44635 8.29422 5.73324 9.20408H3.59184C3.21986 9.20408 2.91837 9.50557 2.91837 9.87755C2.91837 10.2495 3.21986 10.551 3.59184 10.551H5.73324C5.44635 11.4609 4.59508 12.1224 3.59184 12.1224ZM18.4082 12.1224C17.1703 12.1224 16.1633 11.1154 16.1633 9.87755C16.1633 9.13696 16.5254 8.481 17.0801 8.07198L17.7708 10.0953C17.8665 10.375 18.128 10.5512 18.4082 10.5512C18.4802 10.5512 18.5536 10.5393 18.6259 10.5149C18.9777 10.3948 19.1656 10.012 19.0455 9.6598L18.3543 7.63512C18.3722 7.6349 18.39 7.63265 18.4082 7.63265C19.646 7.63265 20.6531 8.63971 20.6531 9.87755C20.6531 11.1154 19.646 12.1224 18.4082 12.1224Z" fill="#00E1FF"/>
</svg>
