<svg width="20" height="16" viewBox="0 0 20 16" fill="none" xmlns="http://www.w3.org/2000/svg">
<path d="M6.9614 11.6228C9.40288 11.3556 10.9388 10.686 10.97 9.69839C10.9936 8.94914 9.72167 8.73061 9.70886 8.72841L6.04965 8.10303L5.18573 10.1859C5.16332 10.2355 5.15271 10.2934 5.15271 10.3528C5.15271 10.5895 5.34403 10.782 5.58197 10.782H6.40687V11.6822C6.6214 11.6654 6.73146 11.648 6.9614 11.6228Z" fill="#61BA41"/>
<path d="M4.28219 1.53882C4.28219 1.53882 3.44628 2.20382 2.58356 3.15659C1.23074 4.6505 0.13288 6.27208 0 6.49761L0.919556 6.64771C1.316 6.01092 2.18132 4.76777 3.36103 3.52081C4.22815 2.60406 5.06406 1.99729 5.06406 1.99729L4.28219 1.53882Z" fill="#61BA41"/>
<path d="M12.1564 0.00509331C9.39813 -0.0823596 7.18159 0.967874 5.50718 2.26926C6.88401 3.09276 12.3489 6.36033 12.3489 6.36033C12.5602 6.51343 12.6355 6.75177 12.6185 6.95369C12.5827 7.38495 12.2621 7.61689 11.9075 7.58868C11.8672 7.58547 4.42553 6.22065 2.26282 5.82261C1.96544 6.27548 1.77733 6.61649 1.69928 6.76578L9.80538 8.15142C9.87603 8.16283 11.5947 8.4548 11.5548 9.71636C11.5128 11.057 9.86162 11.8941 7.0251 12.2043C6.08893 12.3067 5.27484 12.3399 4.61224 12.3399C4.5398 12.3399 3.86719 12.3395 3.79835 12.3387C3.92482 13.6321 5.12615 15.2535 5.63106 15.6678L15.7846 15.6554C15.7846 15.6554 19.746 13.8026 19.9897 8.43959C20.2135 3.51842 16.7718 0.151382 12.1564 0.00509331Z" fill="#61BA41"/>
<path d="M11.5071 6.91228C11.5071 6.70756 11.674 6.54126 11.8786 6.54126C12.0829 6.54126 12.2496 6.70736 12.2496 6.91228C12.2496 7.11761 12.0831 7.28331 11.8786 7.28331C11.674 7.28351 11.5071 7.11761 11.5071 6.91228Z" fill="#61BA41"/>
</svg>
