<svg width="150" height="14" viewBox="0 0 150 14" fill="none" xmlns="http://www.w3.org/2000/svg">
<path fill-rule="evenodd" clip-rule="evenodd" d="M0 8.35678V13.6516H13.8241V8.35678V7.60325H16.5202C18.2409 7.60325 21.1086 7.85418 23.7195 8.35678C26.7596 8.93331 29.4558 9.88699 29.4558 11.2424C29.4558 12.3716 27.4484 13.6516 27.3912 13.6516H47.1522C47.1522 13.6516 46.6648 11.7443 45.6321 10.4897C44.9723 9.6622 44.141 8.93406 42.8787 8.35752C41.7888 7.85492 40.3831 7.45389 38.4619 7.17757V6.90125C39.3512 6.90125 41.7316 6.14847 43.7962 4.94387C46.5778 3.31209 47.0941 0.276319 47.0941 0.276319H27.5337C27.5337 0.276319 29.169 1.45627 29.169 2.53467C29.169 4.79301 19.9342 6.49947 16.5783 6.49947H13.8249V0.276319H0V8.35678ZM50.5926 8.35678V0.351746H55.554V4.66829L59.9426 0.351746H65.7643L60.2294 5.37104L62.4374 8.35752L66.3669 13.6524H60.4018L56.7309 8.35752L55.5548 9.43591V13.6524H50.5935V8.35678H50.5926ZM67.6011 8.35678C69.9524 7.52857 73.3946 8.00503 73.3946 6.80043C73.3946 6.09768 72.4199 6.02226 71.9607 6.02226C71.33 6.02226 70.5268 6.12233 70.4125 6.95054H66.1962C66.1962 4.89308 67.8597 3.71313 72.2193 3.71313C77.4675 3.71313 77.7832 5.39419 77.7832 7.70332V8.35603V12.2454C77.7832 12.7973 77.8123 13.0729 78.3858 13.4747V13.6502H73.8256L73.625 12.621C72.3917 13.6502 71.1012 13.9257 69.4659 13.9257C67.3723 13.9257 65.5083 13.0228 65.5083 11.0154C65.5066 9.53673 66.4249 8.78321 67.6011 8.35678ZM78.9585 8.35678L77.2951 3.98945H81.5685L82.8018 8.35678L83.2601 9.96241L83.7475 8.35678L85.0098 3.98945H88.7387L89.9712 8.35678L90.4303 9.96241L90.8895 8.35678L92.18 3.98945H96.3391L94.7319 8.35678L92.8107 13.6516H88.5373L86.931 8.35678L86.8158 7.97964L86.7014 8.35678L85.2385 13.6516H80.9369L78.9585 8.35678ZM97.1414 8.35678C99.4646 7.52857 102.906 8.00503 102.906 6.80043C102.906 6.09768 101.96 6.02226 101.472 6.02226C100.869 6.02226 100.037 6.12233 99.9519 6.95054H95.7066C95.7066 4.89308 97.3991 3.71313 101.759 3.71313C106.979 3.71313 107.294 5.39419 107.294 7.70332V8.35603V12.2454C107.294 12.7973 107.322 13.0729 107.896 13.4747V13.6502H103.364L103.135 12.621C101.901 13.6502 100.639 13.9257 98.9755 13.9257C96.9109 13.9257 95.046 13.0228 95.046 11.0154C95.0477 9.53673 95.9371 8.78321 97.1414 8.35678ZM108.528 8.35678C108.212 7.97964 108.04 7.50318 108.04 6.9005C108.04 4.41587 110.966 3.71313 113.289 3.71313C115.697 3.71313 118.509 4.19034 118.766 6.74965H114.78C114.722 6.42329 114.579 6.2224 114.35 6.04765C114.12 5.87215 113.804 5.79672 113.46 5.79672C112.715 5.79672 112.228 6.023 112.228 6.49947C112.228 7.45314 115.697 7.27764 117.734 8.35678C118.595 8.80785 119.197 9.48595 119.197 10.5651C119.197 12.5725 117.304 13.9272 113.26 13.9272C110.736 13.9272 107.925 13.2499 107.696 10.6405H111.883C111.883 11.0416 112.054 11.3425 112.341 11.5442C112.628 11.7189 113.001 11.8197 113.431 11.8197C114.09 11.8197 114.808 11.6442 114.808 10.9661C114.81 9.6622 110.048 10.3142 108.528 8.35678ZM121.463 8.35678C123.787 7.52857 127.228 8.00503 127.228 6.80043C127.228 6.09768 126.252 6.02226 125.794 6.02226C125.191 6.02226 124.359 6.12233 124.246 6.95054H120.03C120.03 4.89308 121.693 3.71313 126.082 3.71313C131.302 3.71313 131.617 5.39419 131.617 7.70332V8.35603V12.2454C131.617 12.7973 131.646 13.0729 132.219 13.4747V13.6502H127.659L127.458 12.621C126.225 13.6502 124.963 13.9257 123.299 13.9257C121.206 13.9257 119.341 13.0228 119.341 11.0154C119.34 9.53673 120.258 8.78321 121.463 8.35678ZM132.477 8.35678V0.351746H136.865V6.92664L139.675 3.99019H144.81L140.708 7.72946L141.195 8.35752L145.354 13.6524H140.076L137.696 10.2141L136.864 10.9422V13.6524H132.476V8.35678H132.477ZM145.611 3.99019V8.35752V13.6524H150V8.35752V3.99019H145.611ZM145.611 0V2.73556H150V0H145.611ZM127.227 9.38513C125.793 9.98781 123.901 9.6861 123.901 10.9415C123.901 11.4179 124.416 11.7443 125.278 11.7443C126.827 11.745 127.342 10.6906 127.227 9.38513ZM102.906 9.38513C101.472 9.98781 99.5798 9.6861 99.5798 10.9415C99.5798 11.4179 100.095 11.7443 100.985 11.7443C102.506 11.745 103.021 10.6906 102.906 9.38513ZM73.3937 9.38513C71.9598 9.98781 70.0668 9.6861 70.0668 10.9415C70.0668 11.4179 70.5832 11.7443 71.4435 11.7443C72.9926 11.745 73.5089 10.6906 73.3937 9.38513Z" fill="white"/>
</svg>
