<svg width="1800" height="259" viewBox="0 0 1800 259" fill="none" xmlns="http://www.w3.org/2000/svg">
<g opacity="0.05">
<path fill-rule="evenodd" clip-rule="evenodd" d="M212.758 123.94L139.812 205.666H129.006L56.06 123.94V246.867H45.2533L28.03 227.955V93.2083L0 62.4765V0H10.8068L134.409 136.098L258.011 0H268.818V62.4765L240.788 93.2083V227.955L223.565 246.867H212.758V123.94ZM627.129 246.867L672.383 197.223V49.9812H757.824L767.617 39.1745V0H694.334C666.642 0 644.353 22.2889 644.353 49.9812V106.041L616.323 136.773V246.867H627.129ZM1222.18 123.602C1222.18 55.3846 1166.79 0 1098.57 0H1024.95V10.8068L1060.75 49.6435H1098.57C1139.44 49.6435 1172.2 82.7392 1172.2 123.265C1172.2 164.128 1139.1 196.886 1098.57 196.886H1042.51V247.204H1098.57C1166.79 247.204 1222.18 191.82 1222.18 123.602ZM537.974 0H644.015V49.9812H537.974V0ZM883.115 258.011C954.372 258.011 1012.12 200.263 1012.12 129.006C1012.12 110.769 1008.41 93.546 1001.65 78.0113H952.008V90.1689C958.424 101.651 962.139 114.822 962.139 129.006C962.139 172.57 926.679 208.03 883.115 208.03H791.933V220.188C815.235 243.827 847.317 258.011 883.115 258.011ZM974.297 37.8236V49.9812H883.115C839.55 49.9812 804.09 85.4409 804.09 129.006C804.09 143.189 807.805 156.36 814.222 167.842V180H764.578C757.824 164.465 754.109 147.242 754.109 129.006C754.109 57.7486 811.858 0 883.115 0C918.574 0 950.657 14.5216 974.297 37.8236ZM1670.99 205.666L1743.94 123.94V246.867H1754.75L1771.97 227.955V93.2083L1800 62.4765V0H1789.19L1665.59 136.098L1541.99 0H1531.18V62.4765L1559.21 93.2083V227.955L1576.44 246.867H1587.24V123.94L1660.19 205.666H1670.99ZM1380.56 258.011C1451.82 258.011 1509.57 200.263 1509.57 129.006C1509.57 110.769 1505.85 93.546 1499.1 78.0113H1449.46V90.1689C1455.87 101.651 1459.59 114.822 1459.59 129.006C1459.59 172.57 1424.13 208.03 1380.56 208.03H1289.38V220.188C1312.68 243.827 1344.77 258.011 1380.56 258.011ZM1471.74 37.8236V49.9812H1380.56C1337 49.9812 1301.54 85.4409 1301.54 129.006C1301.54 143.189 1305.25 156.36 1311.67 167.842V180H1262.03C1255.27 164.465 1251.56 147.242 1251.56 129.006C1251.56 57.7486 1309.31 0 1380.56 0C1416.02 0 1448.44 14.5216 1471.74 37.8236ZM548.443 129.006C548.443 200.263 490.694 258.011 419.437 258.011C383.977 258.011 351.895 243.827 328.255 220.188V208.03H419.437C463.002 208.03 498.461 172.57 498.461 129.006C498.461 114.822 494.747 101.651 488.33 90.1689V78.0113H537.974C544.728 93.546 548.443 110.769 548.443 129.006ZM510.619 49.9812V37.8236C487.317 14.5216 455.234 0 419.437 0C348.18 0 290.431 57.7486 290.431 129.006C290.431 147.242 294.146 164.465 300.9 180H350.544V167.842C344.128 156.36 340.413 143.189 340.413 129.006C340.413 85.4409 375.872 49.9812 419.437 49.9812H510.619Z" fill="black"/>
</g>
</svg>
