<svg width="24" height="24" viewBox="0 0 24 24" fill="none" xmlns="http://www.w3.org/2000/svg">
<path d="M19.4082 11.2857C19.2376 11.2857 19.071 11.3017 18.9069 11.3248L18.5387 10.2468C18.8209 10.194 19.1107 10.1633 19.4082 10.1633H20.3061C20.3061 8.81633 18.9592 7.46939 17.6122 7.46939L17.1929 6.30541C16.9388 5.56122 16.154 5 15.3673 5H14.4694C14.0974 5 13.7959 5.30149 13.7959 5.67347C13.7959 6.04545 14.0974 6.34694 14.4694 6.34694H15.3673C15.5737 6.34694 15.8516 6.54584 15.9182 6.74069L16.167 7.46939H12.2245C11.3458 7.46939 10.4699 8.04386 9.965 8.81633H3.69388C2.34694 8.81633 1 10.163 1 11.5102C1.91906 10.678 3.189 10.1633 4.59184 10.1633C6.96649 10.1633 8.92494 11.9208 9.25247 14.2041H8.11835C7.80294 12.5429 6.34533 11.2857 4.59184 11.2857C2.60802 11.2857 1 12.894 1 14.8776C1 16.8611 2.60802 18.4694 4.59184 18.4694C6.34533 18.4694 7.80294 17.2122 8.11835 15.551H14.6939V14.8776C14.6939 13.0473 15.7393 11.4635 17.2641 10.6825L17.6315 11.7583C16.5482 12.377 15.8163 13.5409 15.8163 14.8776C15.8163 16.8611 17.4246 18.4694 19.4082 18.4694C21.3918 18.4694 23 16.8611 23 14.8776C23 12.894 21.3918 11.2857 19.4082 11.2857ZM4.59184 17.1224C3.354 17.1224 2.34694 16.1154 2.34694 14.8776C2.34694 13.6397 3.354 12.6327 4.59184 12.6327C5.59508 12.6327 6.44635 13.2942 6.73324 14.2041H4.59184C4.21986 14.2041 3.91837 14.5056 3.91837 14.8776C3.91837 15.2495 4.21986 15.551 4.59184 15.551H6.73324C6.44635 16.4609 5.59508 17.1224 4.59184 17.1224ZM19.4082 17.1224C18.1703 17.1224 17.1633 16.1154 17.1633 14.8776C17.1633 14.137 17.5254 13.481 18.0801 13.072L18.7708 15.0953C18.8665 15.375 19.128 15.5512 19.4082 15.5512C19.4802 15.5512 19.5536 15.5393 19.6259 15.5149C19.9777 15.3948 20.1656 15.012 20.0455 14.6598L19.3543 12.6351C19.3722 12.6349 19.39 12.6327 19.4082 12.6327C20.646 12.6327 21.6531 13.6397 21.6531 14.8776C21.6531 16.1154 20.646 17.1224 19.4082 17.1224Z" fill="white"/>
</svg>
