<svg width="44" height="40" viewBox="0 0 44 40" fill="none" xmlns="http://www.w3.org/2000/svg">
<path fill-rule="evenodd" clip-rule="evenodd" d="M41.1213 0L22.0001 19.1213L2.87949 0H0V18.9694L2.70865 21.4743V30.2417L7.57188 35.1187H10.4514V29.8169L20.786 39.4347H23.2134L33.5494 29.8169V35.1187H36.4287L41.2921 30.2417V21.4743L44 18.9694V0H41.1213ZM41.8376 1.62725H42.3733V18.3457L39.6649 20.8493V29.6174L35.7126 33.4908H35.1761V25.5676L22.4956 37.8074H21.505L8.8241 25.5676V33.4908H8.2882L4.33512 29.6174V20.8493L1.62727 18.3457V1.62725H2.16257L22.0001 21.5369L41.8376 1.62725ZM22.4956 24.7669H21.505L8.8241 12.5278V22.002L22.0001 34.5767L34.9635 22.2375L35.1761 22.002V12.5278L22.4956 24.7669ZM23.2134 26.3942L33.5494 16.7771V21.3783L22.0001 32.1611L10.4514 21.3783V16.7771L20.786 26.3942H23.2134Z" fill="#3BFF00"/>
</svg>
