<svg width="400" height="352" viewBox="0 0 400 352" fill="none" xmlns="http://www.w3.org/2000/svg">
<path opacity="0.1" fill-rule="evenodd" clip-rule="evenodd" d="M253.297 24.5853L254.074 -35.4442L248.518 -35.3723L247.741 24.6572L201.785 70.6138L201.683 78.484L199.76 227.092L199.658 234.962L198.621 315.053L198.519 322.923L243.301 367.705L243.058 386.532L248.613 386.46L249.34 330.288L298.996 379.945L298.921 385.809L304.476 385.737L305.966 270.616L328.946 247.483L390.638 309.019L379.383 320.273L378.552 384.469L384.108 384.397L384.246 373.75L409.569 348.427L434.245 373.102L434.107 383.75L439.508 383.68L441.443 234.147L463.484 212.106L461.267 383.399L466.822 383.327L467.932 297.526L541.046 370.64L540.894 382.368L546.45 382.296L546.632 368.253L509.618 331.24L559.951 280.906L595.899 316.854L595.06 381.667L600.615 381.595L601.454 316.782L621.15 297.086L621.252 289.216L598.742 311.725L564.013 276.996L616.848 224.162L622.027 229.341L622.128 221.471L602.936 202.278L603.881 129.286L512.641 38.0465L551.407 -0.719585L551.906 -39.2989L546.351 -39.227L545.882 -2.96244L483.356 59.5635L471.322 47.5302L472.433 -38.2703L466.878 -38.1984L465.737 49.9168L519.963 104.143L464.315 159.791L463.738 204.389L441.697 226.429L445.119 -37.9168L439.563 -37.8449L439.094 -1.58031L413.771 23.7427L389.095 -0.933189L389.564 -37.1978L384.009 -37.1259L383.54 -0.861286L346.024 36.6543L309.467 0.0974159L309.937 -36.1672L304.381 -36.0953L303.88 2.6384L341.96 40.7184L305.695 76.9835L253.297 24.5853ZM624.152 65.1472L624.05 73.0173L599.374 48.3415L600.516 -39.9281L606.072 -40L604.959 45.9548L624.152 65.1472ZM547.256 260.396L600.09 207.561L612.885 220.356L560.051 273.19L547.256 260.396ZM274.721 121.666L216.535 63.4797L250.301 29.5614L275.586 54.8466L274.721 121.666ZM212.473 67.3896L274.619 129.536L273.886 186.171L245.124 214.933L244.389 271.721L205.091 232.423L207.158 72.7043L212.473 67.3896ZM279.514 180.543L281.068 60.4844L302.697 82.1139L301.71 158.347L279.514 180.543ZM244.288 279.592L243.251 359.682L203.952 320.384L204.989 240.293L244.288 279.592ZM543.192 264.46L555.987 277.255L505.653 327.588L492.859 314.793L543.192 264.46ZM597.381 202.35L491.868 307.863L492.731 241.198L525.401 208.528L526.665 110.845L597.646 181.826L597.381 202.35ZM486.311 308.089L468.185 289.963L469.838 162.188L521.11 110.917L519.873 206.439L487.204 239.109L486.311 308.089ZM598.295 131.673L597.748 173.956L487.316 63.5238L508.731 42.1087L598.295 131.673ZM382.221 100.988L335.762 54.6849L386.249 4.34956L409.707 27.8069L382.821 54.693L382.221 100.988ZM331.854 58.5928L382.12 108.858L382.274 108.856L381.936 134.936L394.427 147.426L332.37 209.483L332.705 183.558L307.42 158.273L308.407 82.04L331.854 58.5928ZM280.66 187.317L304.576 163.401L326.967 185.792L326.234 242.427L306.07 262.591L306.707 213.364L280.66 187.317ZM250.648 217.33L276.596 191.382L300.967 215.753L298.944 372.076L249.288 322.42L250.648 217.33ZM331.944 242.353L332.272 217.045L398.235 151.234L409.202 162.201L407.518 292.291L394.7 305.109L331.944 242.353ZM384.905 322.825L407.414 300.315L406.853 343.679L384.344 366.188L384.905 322.825ZM434.342 365.541L412.408 343.607L414.787 159.815L387.369 132.397L388.346 56.9359L413.669 31.6129L438.345 56.2887L434.342 365.541ZM417.733 27.5487L438.992 6.28988L438.447 48.4185L417.733 27.5487ZM-169.224 30.0538L-168.448 -29.9757L-174.003 -29.9038L-174.78 30.1257L-220.736 76.0823L-220.838 83.9525L-222.76 232.406L-222.862 240.276L-223.898 320.367L-224 328.237L-179.22 373.173L-179.464 392L-173.908 391.928L-173.181 335.757L-123.368 385.257L-123.444 391.121L-117.889 391.049L-116.399 275.928L-93.4206 252.95L-31.8873 314.796L-43.142 326.05L-43.9728 390.246L-38.4174 390.175L-38.2796 379.527L-12.9566 354.204L11.569 378.573L11.4312 389.221L16.9866 389.149L18.922 239.615L40.9623 217.575L38.7454 388.867L44.3008 388.795L45.4113 302.995L118.525 376.109L118.373 387.837L123.929 387.765L124.11 373.722L87.0965 336.708L137.43 286.375L173.377 322.322L172.539 387.136L178.094 387.064L178.933 322.25L198.629 302.555L198.73 294.685L176.221 317.194L141.492 282.465L194.326 229.631L199.505 234.809L199.607 226.939L180.415 207.747L181.36 134.755L90.1198 43.515L128.886 4.74894L129.385 -33.8304L123.83 -33.7585L123.36 2.50608L60.8345 65.032L48.8012 52.9987L49.9117 -32.8018L44.3563 -32.7299L43.2158 55.3853L97.4418 109.611L41.7937 165.259L41.2165 209.857L19.1761 231.897L22.5975 -32.4483L17.0421 -32.3764L16.5727 3.88821L-8.75029 29.2112L-33.4262 4.53533L-32.9568 -31.7293L-38.5122 -31.6574L-38.9816 4.60723L-76.4971 42.1228L-113.054 5.56593L-112.585 -30.6987L-118.14 -30.6268L-118.641 8.10691L-80.5613 46.1869L-116.826 82.452L-169.224 30.0538ZM201.63 70.6157L201.529 78.4859L176.853 53.81L177.995 -34.4596L183.551 -34.5315L182.438 51.4233L201.63 70.6157ZM124.889 265.862L177.724 213.028L190.518 225.823L137.684 278.657L124.889 265.862ZM-147.646 127.133L-205.832 68.9462L-172.068 35.1823L-146.781 60.3131L-147.646 127.133ZM-209.896 73.0104L-147.748 135.003L-148.481 191.637L-177.243 220.399L-177.978 277.188L-217.278 238.044L-215.211 78.3251L-209.896 73.0104ZM-142.853 186.01L-141.299 65.9509L-119.67 87.5804L-120.657 163.813L-142.853 186.01ZM-178.079 285.058L-179.116 365.149L-218.417 326.005L-217.38 245.914L-178.079 285.058ZM120.825 269.926L133.62 282.721L83.2865 333.054L70.4917 320.26L120.825 269.926ZM174.859 207.819L69.347 313.331L70.2098 246.666L102.88 213.996L104.144 116.313L175.125 187.295L174.859 207.819ZM63.7896 313.557L45.6635 295.431L47.3172 167.657L98.5885 116.385L97.3521 211.908L64.6823 244.578L63.7896 313.557ZM175.774 137.141L175.227 179.424L64.7948 68.9923L86.2099 47.5772L175.774 137.141ZM-40.2998 106.457L-86.6051 60.1514L-36.2698 9.66375L-12.8145 33.2754L-39.7006 60.1615L-40.2998 106.457ZM-90.6673 64.0613L-40.4017 114.327L-40.2473 114.325L-40.5849 140.405L-28.0946 152.895L-90.1516 214.952L-89.816 189.026L-115.101 163.741L-114.115 87.5085L-90.6673 64.0613ZM-141.861 192.786L-117.945 168.87L-95.5538 191.261L-96.2868 247.895L-116.451 268.06L-115.814 218.833L-141.861 192.786ZM-171.717 222.642L-145.771 196.848L-121.4 221.219L-123.421 377.389L-173.077 327.732L-171.717 222.642ZM-90.577 247.821L-90.2495 222.513L-24.2866 156.703L-13.3196 167.67L-15.0033 297.759L-27.8211 310.577L-90.577 247.821ZM-37.6165 328.293L-15.1071 305.784L-15.6684 349.147L-38.1777 371.656L-37.6165 328.293ZM11.9755 371.007L-9.95865 349.073L-7.57988 165.281L-34.9975 137.864L-34.0208 62.4024L-8.85216 37.0814L15.978 61.7552L11.9755 371.007ZM-4.78796 33.0172L16.4708 11.7584L15.9276 53.7327L-4.78796 33.0172Z" fill="url(#paint0_linear)"/>
<defs>
<linearGradient id="paint0_linear" x1="412.153" y1="-40" x2="412.153" y2="303.5" gradientUnits="userSpaceOnUse">
<stop stop-color="white"/>
<stop offset="1" stop-color="white" stop-opacity="0"/>
</linearGradient>
</defs>
</svg>
