<svg width="20" height="20" viewBox="0 0 20 20" fill="none" xmlns="http://www.w3.org/2000/svg">
<path d="M4 1C4 0.458283 3.5738 0 3.03209 0L1.5607 0C1.13689 0 0.755893 0.266232 0.633797 0.672081C0.221546 2.04242 0 3.49534 0 5C0 6.653 0.267379 8.24354 0.761247 9.73075C2.23973 14.183 5.74803 17.709 10.1891 19.2119L10.2693 19.2388C11.7565 19.7326 13.347 20 15 20C16.5047 20 17.9576 19.7785 19.3279 19.3662C19.7338 19.2441 20 18.8631 20 18.4393V16.9679C20 16.4262 19.5417 16 19 16C17.3771 16 15.8145 15.7423 14.3507 15.2655C13.3671 14.9452 12.2539 15.2791 11.7326 16.1726L11.0273 17.3818C7.04287 16.1044 3.89559 12.9571 2.61822 8.97271L3.82738 8.26736C4.7209 7.74614 5.05482 6.63292 4.73447 5.64934C4.25772 4.18555 4 2.62287 4 1Z" fill="white"/>
</svg>
