<svg width="72" height="69" viewBox="0 0 72 69" fill="none" xmlns="http://www.w3.org/2000/svg">
<path d="M50.5407 32.6595C50.4274 31.8668 49.9245 31.1836 49.2014 30.8398C48.4783 30.4959 47.631 30.537 46.9446 30.9493L44.8507 32.2054C44.1337 32.6394 43.6946 33.4155 43.6918 34.2536L43.6942 36.4466L40.1848 39.9565C39.7369 40.4052 39.4846 41.0128 39.4829 41.6468L39.4817 46.2032C39.4814 46.6886 39.7736 47.1263 40.2221 47.3122C40.6705 47.498 41.1867 47.3954 41.5299 47.0521L50.3673 38.2148C50.8982 37.6823 51.1485 36.9316 51.0434 36.1871L50.5407 32.6595ZM41.8826 43.306V41.6521L45.392 38.1421C45.8404 37.695 46.0918 37.0874 46.0904 36.4542L46.0868 34.2625L48.1644 32.9987L48.6706 36.5181L41.8826 43.306Z" fill="#6666CC"/>
<path d="M60.0858 8.86875H60.0834C56.9228 8.86068 53.8904 10.1174 51.662 12.3588C51.6266 12.3943 51.5967 12.4337 51.5616 12.4696C51.6504 12.346 51.7306 12.2184 51.8249 12.0975C53.7981 9.5677 55.1117 7.90558 55.7292 7.15741C56.3144 6.44722 56.5206 5.49809 56.2827 4.60912C56.0448 3.72015 55.3922 3.00081 54.5305 2.67779L51.0598 1.37364C46.0434 -0.512882 40.5026 -0.454364 35.5271 1.53768L31.8291 3.01761C31.3268 3.21846 31.021 3.73064 31.0827 4.26808C31.1443 4.80551 31.558 5.23522 32.0927 5.31717L37.1265 6.09053C38.0722 6.23623 39.0028 6.46662 39.9071 6.77893C41.0689 7.18104 42.0654 7.95567 42.7416 8.98242L36.1754 12.2461C36.0266 12.2862 35.8874 12.3555 35.7656 12.4498L35.0256 12.8176C31.1788 14.7232 27.7852 17.4314 25.0738 20.7597L24.5887 21.355C22.3494 24.094 22.3114 28.0204 24.4973 30.8023L13.6481 36.9487L12.1447 36.4419C11.3375 36.1675 10.4458 36.3299 9.78714 36.8713L0.440113 44.5071C0.102351 44.7836 -0.0587294 45.2216 0.0194348 45.6511C0.0975989 46.0805 0.40269 46.4337 0.816214 46.5734L6.23792 48.3996C6.47904 48.4801 6.73939 48.4826 6.98199 48.4067L18.3234 44.8275C18.3762 44.8109 18.4279 44.7907 18.4781 44.7672L25.6058 41.3779L24.8682 44.5255C21.951 44.6631 19.1928 45.8949 17.1434 47.9755C13.7475 51.3672 12.7303 56.4711 14.5665 60.9056C16.4026 65.34 20.7301 68.2309 25.5296 68.2292H25.532C29.3748 68.2313 32.9801 66.3706 35.2046 63.2372C37.4291 60.1038 37.9969 56.0865 36.7277 52.4594L38.4541 52.8113C39.6813 53.0637 40.9531 52.6809 41.837 51.793L57.0533 36.5772C58.1286 35.4979 58.4429 33.8747 57.8482 32.472C58.5832 32.6116 59.3295 32.6822 60.0776 32.6829C64.3343 32.6884 68.2701 30.4211 70.4008 26.7361C72.5316 23.0512 72.5331 18.509 70.4049 14.8226C68.2767 11.1362 64.3425 8.86621 60.0858 8.86875H60.0858ZM64.3651 24.8943C64.194 25.0526 64.0137 25.2008 63.8252 25.3379L63.2923 24.2691C63.3723 24.1991 63.462 24.1435 63.5378 24.0676C64.2296 23.3749 64.6887 22.4842 64.8516 21.5189L66.0629 21.1149C65.9744 22.539 65.371 23.8823 64.3651 24.8942V24.8943ZM62.5325 20.6941C62.5351 21.3228 62.2862 21.9264 61.8411 22.3704C61.7895 22.4218 61.7298 22.4609 61.6744 22.5069C62.0842 21.9869 62.3119 21.3468 62.3227 20.6848C62.3211 20.0549 62.1177 19.4422 61.7424 18.9363C61.7748 18.9653 61.8112 18.9869 61.8423 19.0179C62.2871 19.462 62.5356 20.0656 62.5325 20.6941V20.6941ZM56.4552 23.685C56.5586 23.8118 56.6643 23.9377 56.7863 24.0604L55.9579 24.8882C55.6011 24.5289 55.2916 24.1255 55.037 23.6878L56.4552 23.685ZM58.9539 25.2871C59.3483 25.3963 59.7551 25.4545 60.1643 25.4602H60.1655C60.4974 25.459 60.8282 25.4235 61.1528 25.3543L61.6809 26.4134C61.187 26.5516 60.6772 26.6253 60.1644 26.6326H60.1632C59.4287 26.6301 58.7011 26.4912 58.0174 26.2231L58.9539 25.2871ZM64.632 19.0622C64.3531 18.1946 63.7971 17.4425 63.0493 16.9216L63.0497 15.5308C64.3205 16.1984 65.2841 17.3314 65.7389 18.693L64.632 19.0622ZM60.6499 15.973C59.7436 15.88 58.8298 16.0495 58.0171 16.4612L57.4186 15.4613C58.4118 14.9403 59.5326 14.7123 60.6503 14.8038L60.6499 15.973ZM55.5347 16.9882L55.9643 17.7058L55.0361 17.7068C55.1845 17.4553 55.3511 17.2152 55.5347 16.9882V16.9882ZM59.3277 20.1018C59.6444 20.1048 59.9047 20.3527 59.923 20.6689C59.9195 20.9996 59.656 21.2688 59.3254 21.2794L53.2628 21.2917L50.5956 21.2829C50.5871 21.1158 50.5713 20.95 50.5713 20.7814C50.5713 20.5562 50.5885 20.3339 50.6039 20.1114L59.3277 20.1018ZM53.9799 5.34708C53.981 5.45023 53.9453 5.5504 53.8791 5.62949C53.5457 6.03329 53.013 6.69915 52.2975 7.6055L51.8648 7.17268C51.4357 6.73816 51.3701 6.06219 51.7078 5.55332L52.4397 4.45543L53.6869 4.92407C53.8628 4.99076 53.9793 5.15899 53.9798 5.34705L53.9799 5.34708ZM44.3059 10.8848L44.8777 11.3289L39.7625 14.972L38.5411 13.7503L44.3059 10.8848ZM26.4484 22.8724L26.9335 22.2771C29.429 19.2131 32.5528 16.7201 36.0942 14.9666L36.2764 14.876L38.3004 16.8922C38.3014 16.897 38.2997 16.9019 38.3009 16.9067L32.9539 24.9247C32.4939 25.617 31.893 26.2044 31.1904 26.6483L26.6056 29.5534C24.9203 27.6669 24.8536 24.836 26.4484 22.8724ZM24.9238 33.3233L24.9766 33.7346C25.0388 34.2366 24.7765 34.723 24.3228 34.9468L17.2735 38.4772C16.8801 38.6688 16.4127 38.6249 16.0619 38.3634L24.9238 33.3233ZM11.3784 38.7163L11.6365 38.8032L10.5183 40.4809C9.93137 41.3621 9.06702 42.0221 8.06234 42.3563L6.04516 43.0472L11.3784 38.7163ZM17.5219 42.5643L6.6328 46.0005L5.72411 45.6943L8.82749 44.6312C10.3354 44.127 11.6328 43.1354 12.515 41.8126L13.9391 39.6755L14.2199 39.9559C15.3078 41.0508 16.9776 41.3191 18.3538 40.6203L25.3914 37.0957C26.757 36.4174 27.5454 34.9507 27.3576 33.4375L27.1774 32.0318L32.4746 28.6754L32.5078 28.6519L32.0341 33.857C31.9225 35.034 32.6943 36.1137 33.8441 36.3891C33.5739 36.5401 33.3246 36.7258 33.1027 36.9416C31.7071 38.3406 31.7071 40.6052 33.1027 42.0042C33.3231 42.2188 33.5705 42.4038 33.8389 42.5542L33.6933 43.1566C33.6148 43.4399 33.5893 43.7352 33.6183 44.0278L34.2302 49.501L33.3195 49.3153C31.5442 48.9536 29.765 49.9163 29.0965 51.6002L27.06 56.7349C26.834 57.2978 26.2352 57.616 25.6421 57.4883C25.3047 57.4193 25.0095 57.2166 24.8239 56.9265C24.6383 56.6363 24.5779 56.2834 24.6567 55.948L28.5118 39.4972C28.6166 39.0483 28.4551 38.579 28.0962 38.2896C27.7373 38.0003 27.2444 37.942 26.828 38.1397L17.5219 42.5643ZM34.7994 40.3075C34.338 39.8467 34.3375 39.0992 34.7982 38.6378C35.259 38.1764 36.0065 38.1758 36.4679 38.6366C36.9294 39.0973 36.9299 39.8449 36.4692 40.3063C36.008 40.7667 35.2612 40.7673 34.7994 40.3075V40.3075ZM22.6108 54.1599L20.2292 53.684C20.8594 52.3352 22.0008 51.2929 23.4012 50.7874L22.6108 54.1599ZM19.6247 56.0102L22.251 56.5349C22.2845 56.9655 22.3952 57.3865 22.5776 57.778L21.1072 60.2313C20.1367 59.1538 19.5984 57.7556 19.5959 56.3054C19.5959 56.2052 19.6198 56.1097 19.6247 56.0102ZM24.3169 59.5428C24.5914 59.678 24.8815 59.7789 25.1805 59.8435C25.3687 59.8777 25.5594 59.8969 25.7506 59.901L27.6809 61.8316C26.9963 62.1005 26.2676 62.2396 25.5321 62.2421H25.5309C24.6685 62.238 23.8176 62.0451 23.0378 61.6769L24.3169 59.5428ZM30.8446 53.7026C31.0671 54.1469 31.2325 54.6175 31.3369 55.1034L30.2891 55.1035L30.8446 53.7026ZM29.7389 60.4963L28.2769 59.0339C28.7248 58.6521 29.0729 58.1668 29.291 57.6201L29.3373 57.5033L31.3413 57.503C31.1119 58.6362 30.5547 59.6771 29.7389 60.4963L29.7389 60.4963ZM32.2263 63.0582C30.4539 64.8386 28.0431 65.8364 25.5309 65.8294H25.5297C20.5415 65.8388 16.4038 61.972 16.076 56.9946C15.7482 52.0172 19.3431 47.6411 24.2894 46.9963L24.0208 48.1423C19.7872 48.9184 16.845 52.7959 17.2372 57.0821C17.6295 61.3682 21.2268 64.6472 25.5309 64.6418H25.5321C27.745 64.6484 29.8686 63.7693 31.4294 62.2005C34.2334 59.3757 34.6614 54.9675 32.4533 51.6561C32.5817 51.6405 32.7117 51.6441 32.8391 51.667L33.8321 51.8694C35.8411 55.5417 35.187 60.0992 32.2262 63.0582L32.2263 63.0582ZM55.3566 34.8805L40.1403 50.0963C39.8243 50.4121 39.3711 50.5484 38.9333 50.4595L36.7034 50.0051L36.0145 43.7618L36.1997 42.9964C37.6539 42.7689 38.8193 41.6721 39.1344 40.2343C39.4494 38.7966 38.8494 37.3129 37.6236 36.4983C37.6374 35.8575 37.3923 35.2382 36.9437 34.7803C36.4951 34.3225 35.8809 34.0649 35.24 34.0656L34.4244 34.0767L35.1486 26.1182C35.1464 26.0723 35.1414 26.0266 35.1336 25.9813L40.3043 18.2282C40.4922 17.9405 40.6153 17.6153 40.6649 17.2752L46.2755 13.2793C46.9129 12.8251 47.2924 12.0916 47.295 11.309C47.2966 10.5191 46.922 9.7756 46.2861 9.30702L45.2412 8.54948C44.3177 6.65538 42.6823 5.20358 40.6921 4.51103C39.6509 4.15166 38.5795 3.88656 37.4909 3.71892L36.8089 3.61405C41.1023 2.00287 45.8329 1.99474 50.1318 3.59114L49.71 4.22396C48.7415 5.68529 48.9328 7.62596 50.1681 8.86996L50.8045 9.50637C50.5283 9.85944 50.2418 10.2261 49.9338 10.6211C48.1032 12.971 47.0966 15.8579 47.0693 18.8365C47.0674 18.8636 47.0536 18.8867 47.0536 18.9142C47.0536 18.9463 47.0694 18.9732 47.0718 19.0046C47.0637 22.5922 48.475 26.0374 50.9978 28.5882L55.3567 32.9823C55.8792 33.5071 55.8792 34.3557 55.3566 34.8805ZM66.8058 27.5026C64.4629 29.8491 61.0664 30.8051 57.8434 30.0252C54.6204 29.2453 52.0368 26.8423 51.0259 23.6841L52.3901 23.6886C53.6188 26.9122 56.7134 29.0396 60.1632 29.0323H60.1644C61.4519 29.0323 62.7218 28.7331 63.8739 28.1583L63.8894 28.1546L63.9014 28.1453C67.2425 26.481 69.071 22.7994 68.3781 19.1316C67.6851 15.4638 64.6395 12.703 60.9215 12.3724C57.2035 12.0417 53.7185 14.2217 52.3892 17.7097L51.0865 17.7112C52.396 13.8578 56.0148 11.2667 60.0847 11.2685H60.0859C63.9322 11.2685 67.3997 13.586 68.8708 17.1399C70.3419 20.6938 69.5269 24.784 66.8059 27.5026H66.8058Z" fill="#6666CC"/>
</svg>
