<svg width="16" height="14" viewBox="0 0 16 14" fill="none" xmlns="http://www.w3.org/2000/svg">
<path fill-rule="evenodd" clip-rule="evenodd" d="M3.96933 8.09583L0.282607 6.71289C-0.0918464 6.5719 -0.0950997 6.04065 0.278288 5.896L15.4087 0.0300309C15.7295 -0.0946029 16.0604 0.187746 15.9906 0.526369L13.2753 13.6522C13.2113 13.962 12.8498 14.1027 12.5946 13.9161L8.88801 11.2118C8.66289 11.0475 8.35606 11.0563 8.14064 11.2327L6.0856 12.9164C5.84704 13.1124 5.48763 13.0032 5.39632 12.7078L3.96933 8.09583ZM12.3719 2.90015L5.16662 7.35986C4.89046 7.53113 4.76043 7.86633 4.84966 8.18005L5.6287 10.931C5.68401 11.126 5.96556 11.106 5.99238 10.9045L6.19494 9.396C6.23313 9.11194 6.36796 8.85034 6.57697 8.65479L12.5234 3.09985C12.6346 2.99609 12.5014 2.82019 12.3719 2.90015Z" fill="white"/>
</svg>
