<?xml version="1.0" encoding="UTF-8"?> <svg xmlns="http://www.w3.org/2000/svg" width="14" height="14" viewBox="0 0 14 14" fill="none"><path fill-rule="evenodd" clip-rule="evenodd" d="M10.1364 4.43077e-07L3.86341 1.68876e-07C1.73313 7.57583e-08 -7.5761e-08 1.73321 -1.68879e-07 3.86349L-4.43081e-07 10.1365C-5.36202e-07 12.2669 1.73313 14 3.86341 14L10.1364 14C12.2669 14 14 12.2668 14 10.1365L14 3.86349C14.0001 1.73321 12.2669 5.36202e-07 10.1364 4.43077e-07ZM10.7587 2.3396C10.5194 2.3396 10.2843 2.43649 10.1153 2.60625C9.94544 2.77518 9.84781 3.01036 9.84781 3.25051C9.84781 3.48991 9.94552 3.72501 10.1153 3.89477C10.2842 4.0637 10.5194 4.16142 10.7587 4.16142C10.9989 4.16142 11.2332 4.0637 11.403 3.89477C11.5727 3.72501 11.6696 3.48983 11.6696 3.25051C11.6696 3.01036 11.5727 2.77518 11.403 2.60625C11.234 2.43649 10.9989 2.3396 10.7587 2.3396ZM3.39255 7.00021C3.39255 5.01103 5.01082 3.39276 6.99999 3.39276C8.98917 3.39276 10.6074 5.01103 10.6074 7.00021C10.6074 8.9893 8.98917 10.6075 6.99999 10.6075C5.01082 10.6075 3.39255 8.9893 3.39255 7.00021ZM4.6347 7.00012C4.6347 8.3043 5.69582 9.36526 6.99999 9.36526C8.30417 9.36526 9.36529 8.3043 9.36529 7.00012C9.36529 5.69587 8.30425 4.63483 6.99999 4.63483C5.69574 4.63483 4.6347 5.69587 4.6347 7.00012Z" fill="white"></path></svg> 