<?xml version="1.0" encoding="UTF-8"?> <svg xmlns="http://www.w3.org/2000/svg" width="82.474" height="73.803" viewBox="0 0 82.474 73.803"><g id="logo" transform="translate(-19.763)"><path id="Path_12" data-name="Path 12" d="M82.663,55.826,63.28,73.8H58.72L39.336,55.826v9.84H34.016l-9.121-9.083V40.119l-5.131-4.731V0h5.321L61,35.766,96.916,0h5.321V35.388l-5.131,4.731V56.583l-9.122,9.083H82.663ZM61.95,70.775,85.7,47.877V62.638h.95l7.411-7.191V38.983L99.2,34.252V3.028h-.95L61,40.308,23.754,3.028H22.8V34.252l5.131,4.731V55.447l7.411,7.191h.95V47.877l23.754,22.9ZM61,60.178,82.663,39.93V31.414L63.28,49.391H58.72L39.336,31.414V39.93ZM85.324,41.633l.38-.378V23.466L61.95,46.364h-1.9L36.3,23.466V41.254L61,64.72Z" fill="#76bc21" fill-rule="evenodd"></path></g></svg> 