<?xml version="1.0" encoding="UTF-8"?> <svg xmlns="http://www.w3.org/2000/svg" width="16" height="14" viewBox="0 0 16 14" fill="none"><path d="M16 1.65739C15.405 1.93846 14.771 2.12477 14.11 2.21523C14.79 1.778 15.309 1.09092 15.553 0.26277C14.919 0.669847 14.219 0.957385 13.473 1.11785C12.871 0.427539 12.013 5.25105e-07 11.077 4.84191e-07C9.261 4.04811e-07 7.799 1.58738 7.799 3.53338C7.799 3.81338 7.821 4.08262 7.875 4.33892C5.148 4.19569 2.735 2.78815 1.114 0.644C0.831 1.17277 0.665 1.778 0.665 2.42954C0.665 3.65292 1.25 4.73738 2.122 5.36523C1.595 5.35446 1.078 5.18969 0.64 4.93015C0.64 4.94092 0.64 4.95492 0.64 4.96892C0.64 6.68554 1.777 8.11138 3.268 8.43985C3.001 8.51846 2.71 8.55615 2.408 8.55615C2.198 8.55615 1.986 8.54323 1.787 8.49585C2.212 9.89477 3.418 10.9232 4.852 10.9566C3.736 11.8968 2.319 12.4632 0.784999 12.4632C0.515999 12.4632 0.257999 12.4503 -5.42667e-07 12.4148C1.453 13.4238 3.175 14 5.032 14C11.068 14 14.368 8.61538 14.368 3.948C14.368 3.79185 14.363 3.64108 14.356 3.49139C15.007 2.99385 15.554 2.37246 16 1.65739Z" fill="white"></path></svg> 