<?xml version="1.0" encoding="UTF-8"?> <svg xmlns="http://www.w3.org/2000/svg" width="16" height="12" viewBox="0 0 16 12" fill="none"><path fill-rule="evenodd" clip-rule="evenodd" d="M11.6961 1.5027e-06C13.7325 1.76434e-06 14.7988 0.298464 15.3764 1.03015C15.9566 1.76502 16 2.89063 16 4.52405L16 7.47608C16 9.34766 15.723 10.4288 15.0738 11.0909C14.4407 11.7367 13.4621 12 11.6961 12L4.30379 12C0.6656 12 -2.51822e-07 10.4766 -1.11181e-07 7.47607L2.71878e-08 4.52405C9.97833e-08 2.97522 1.52235e-07 1.8562 0.560981 1.09668C1.13636 0.317749 2.22075 2.8532e-07 4.30379 5.52949e-07L11.6961 1.5027e-06ZM6.91536 8.27649L10.2722 6.40686C10.4427 6.31189 10.5495 6.12378 10.5493 5.91858C10.549 5.71362 10.4418 5.52576 10.271 5.43128L6.91417 3.57361C6.75422 3.48511 6.56248 3.49194 6.40831 3.59168C6.25419 3.69141 6.16016 3.86963 6.16016 4.06177L6.16016 7.78906C6.16016 7.98145 6.25445 8.15979 6.40888 8.25952C6.49089 8.3125 6.58349 8.33911 6.67629 8.33911C6.75825 8.33911 6.84031 8.31836 6.91536 8.27649Z" fill="white"></path></svg> 