<?xml version="1.0" encoding="UTF-8"?> <svg xmlns="http://www.w3.org/2000/svg" width="68" height="68" viewBox="0 0 68 68" fill="none"><path d="M39.5067 31.5505C39.2741 31.5505 39.0418 31.4579 38.8701 31.2743C38.541 30.9228 38.5591 30.371 38.9106 30.0419L47.799 21.7208C48.1506 21.3917 48.7024 21.4097 49.0317 21.7615C49.3609 22.1131 49.3424 22.665 48.9909 22.9941L40.1025 31.3151C39.9346 31.4724 39.7204 31.5505 39.5067 31.5505Z" fill="#6666CC"></path><path d="M65.5407 40.1516C60.9466 18.83 54.6694 10.0552 54.4043 9.69208L54.4036 9.69243C54.3109 9.56528 54.1841 9.46307 54.0336 9.40063L44.5355 5.46269L44.3893 4.81543C44.3478 4.63177 44.2479 4.46643 44.1049 4.34416L39.2605 0.208775L39.2577 0.211566C39.1054 0.0814519 38.9102 0 38.6943 0H29.3031C29.0872 0 28.892 0.0814519 28.7396 0.211566L28.7368 0.208775L23.8924 4.34416C23.7494 4.46643 23.6494 4.63177 23.6079 4.81543L23.4614 5.46408L13.9664 9.40063C13.8159 9.46307 13.6891 9.56546 13.5965 9.69243L13.5961 9.69208C13.3312 10.0552 7.05382 18.83 2.46147 40.142C2.43182 40.2732 -0.51109 53.4026 0.0779108 66.2508C0.0993639 66.7163 0.482903 67.0829 0.948941 67.0829H9.92854C10.3925 67.0829 10.7751 66.7199 10.7996 66.2567C10.8067 66.1168 11.4376 54.4247 12.8997 45.8843C13.5702 50.0478 14.4944 56.1232 14.8497 60.0278C14.8844 60.4117 15.1671 60.7272 15.5449 60.8034C15.6331 60.8214 24.4401 62.5814 33.9518 62.5929C33.9528 62.5929 33.9535 62.5933 33.9546 62.5933C33.9696 62.5933 33.9849 62.5931 33.9999 62.5931C34.0149 62.5931 34.0303 62.5933 34.0453 62.5933C34.0463 62.5933 34.047 62.5929 34.0481 62.5929C43.5598 62.5816 52.3667 60.8216 52.455 60.8034C52.8328 60.727 53.1155 60.4117 53.1506 60.0278C53.5051 56.1237 54.4297 50.0479 55.1002 45.8843C56.5623 54.4247 57.1932 66.1168 57.2007 66.2567C57.2252 66.7199 57.6077 67.0829 58.0713 67.0829H67.0509C67.517 67.0829 67.9005 66.7163 67.922 66.2508C68.5115 53.4028 65.5686 40.2732 65.5407 40.1516ZM42.7519 5.4824L44.9175 15.0726L38.2614 14.7702C37.9166 14.7526 37.5896 14.9469 37.4377 15.2599C37.2854 15.573 37.3337 15.9466 37.561 16.2103L42.1741 21.5691L30.1748 31.3199C30.7103 30.2232 35.2704 20.1818 35.4966 19.64C39.1897 10.7967 40.2824 6.04384 40.2855 3.37703L42.7519 5.4824ZM29.7463 1.74415H38.2504C38.7562 2.74512 39.1454 6.31 33.9987 18.6989C28.8552 6.32046 29.2347 2.75105 29.7463 1.74415ZM25.2455 5.4824L27.7088 3.37964C27.7105 6.17901 28.9161 11.2681 33.0495 20.9372C32.3318 22.5974 31.6049 24.2104 30.9137 25.7055L25.8232 21.5689L30.4363 16.2102C30.6635 15.9463 30.7119 15.5727 30.5596 15.2598C30.4073 14.9469 30.0854 14.7545 29.7358 14.77L23.0798 15.0724L25.2455 5.4824ZM30.153 27.3349C29.3507 29.0368 28.6255 30.5253 28.0576 31.6729C27.7395 29.2875 27.4315 26.9943 27.148 24.8931L30.153 27.3349ZM26.0342 16.6842L27.7962 16.6042L26.266 18.3816C26.1715 17.6901 26.0935 17.1175 26.0342 16.6842ZM6.71371 65.3387H5.8671L6.71371 62.1869V65.3387ZM12.1576 40.9393C12.1572 40.9403 12.1569 40.9415 12.1569 40.9426C10.2247 48.2443 9.31442 61.8231 9.10495 65.3389H8.45769V55.5773C8.45769 55.1396 8.13345 54.7699 7.69968 54.7127C7.26713 54.6558 6.85691 54.9284 6.74354 55.351L4.06121 65.3389H1.78701C1.36806 53.0032 4.13394 40.6545 4.16446 40.5191C7.87288 23.3089 12.7797 14.2987 14.4335 11.6028C14.8242 12.1196 15.3281 12.9636 15.7451 14.2553C16.5464 16.736 17.1265 21.2903 15.3448 28.9001L12.1576 40.9393ZM15.7913 53.3193L21.763 36.0274C21.9203 35.5723 21.6785 35.0756 21.2233 34.9186C20.7683 34.7617 20.2715 35.0031 20.1142 35.4583L15.2417 49.5672C14.632 45.5543 14.0355 42.04 13.8921 41.2019C13.8921 41.2019 17.038 29.318 17.0398 29.3098C19.7443 17.7706 17.3225 12.5275 15.8025 10.5275L22.9912 7.54712L21.127 15.8036C21.067 16.0689 21.1342 16.3469 21.309 16.5555C21.4837 16.7639 21.7481 16.8801 22.0173 16.8668L24.2847 16.7637C24.3822 17.4755 24.5412 18.6417 24.746 20.1472L23.9165 21.1109C23.7625 21.2895 23.6878 21.5225 23.7087 21.7573C23.7295 21.992 23.8446 22.2081 24.0272 22.3567L25.1712 23.2864C26.4821 32.9809 28.4923 48.0456 29.488 56.5203C22.7962 56.2624 17.7697 55.5797 16.0645 55.3228C15.9778 54.6659 15.886 53.9946 15.7913 53.3193ZM16.5239 59.2135C16.4581 58.5582 16.3795 57.8544 16.2909 57.1187C18.421 57.4238 23.335 58.0393 29.6894 58.2718C29.7971 59.2274 29.886 60.0611 29.9521 60.745C23.6857 60.4393 18.3132 59.5394 16.5239 59.2135ZM51.4763 59.2135C49.3105 59.6082 41.8964 60.8442 34.0001 60.8489C33.2309 60.8484 32.4665 60.836 31.7109 60.8141C31.6472 60.1363 31.5586 59.2968 31.4503 58.3252C32.4897 58.3499 33.5615 58.3639 34.6613 58.3639C39.9095 58.3639 45.7831 58.0477 51.7087 57.1268C51.6204 57.8595 51.5417 58.5606 51.4763 59.2135ZM52.7579 49.5709L47.8843 35.4581C47.7273 35.0029 47.2306 34.7615 46.7752 34.9185C46.3201 35.0754 46.0782 35.5722 46.2355 36.0272L52.2082 53.3229C52.1135 53.9984 52.0219 54.6699 51.9356 55.3268C44.6155 56.5069 37.3494 56.7334 31.2499 56.5773C30.6098 51.1035 29.5316 42.7809 28.4917 34.935L43.9704 22.3566C44.1533 22.2079 44.2681 21.9918 44.2892 21.7571C44.31 21.5225 44.235 21.2893 44.0815 21.1107L40.2014 16.604L45.9803 16.8667C46.253 16.8817 46.5139 16.7639 46.6886 16.5553C46.8634 16.3467 46.9306 16.0687 46.8706 15.8034L45.0059 7.54555L52.1981 10.5274C50.6777 12.5274 48.2559 17.7705 50.9604 29.3096C50.9625 29.3176 54.1081 41.2018 54.1081 41.2018C53.9646 42.0402 53.3677 45.5564 52.7579 49.5709ZM61.2865 65.3387V62.1869L62.1329 65.3387H61.2865ZM66.213 65.3387H63.9388L61.2569 55.3509C61.1435 54.9284 60.736 54.6553 60.3004 54.7125C59.8668 54.7697 59.5424 55.1395 59.5424 55.5771V65.3387H58.8954C58.6856 61.8229 57.7753 48.2441 55.8435 40.9424C55.8432 40.9414 55.8428 40.9401 55.8428 40.9391L52.6557 28.8997C50.0938 17.9578 52.3737 13.221 53.5718 11.6106C55.2305 14.3167 60.1314 23.3273 63.8377 40.5282C63.8663 40.6546 66.6325 53.0032 66.213 65.3387Z" fill="#6666CC"></path><path d="M44.1687 46.4636H36.804C36.3223 46.4636 35.9319 46.8541 35.9319 47.3357V50.0259C35.9319 50.3759 36.1411 50.692 36.4634 50.8287L40.1458 52.3906L40.1462 52.3892C40.2531 52.4346 40.3685 52.46 40.4865 52.46C40.6002 52.46 40.7156 52.4375 40.8267 52.3906L44.5088 50.8287C44.8311 50.692 45.0406 50.3758 45.0406 50.0259V47.3357C45.0408 46.8541 44.6503 46.4636 44.1687 46.4636ZM43.2966 49.4484L40.4863 50.6405L37.6763 49.4484V48.2078H43.2968V49.4484H43.2966Z" fill="#6666CC"></path></svg> 