<?xml version="1.0" encoding="UTF-8"?> <svg xmlns="http://www.w3.org/2000/svg" width="62" height="64" viewBox="0 0 62 64" fill="none"><path d="M60.9301 48.4216C61.5387 47.8154 61.8799 46.9911 61.8778 46.1321V25.3225C61.8759 23.8596 60.8949 22.579 59.483 22.1963L57.6772 15.5779C56.7886 12.3362 54.8113 9.49921 52.0774 7.54369C45.6445 2.96575 38.0186 0.358363 30.1294 0.0394343C29.98 -0.00149745 29.8235 -0.00903888 29.6708 0.0173454C28.5382 -0.0158218 27.4029 -0.00142324 26.2649 0.060541C22.3793 0.275875 18.545 1.04958 14.8799 2.35784L8.04881 4.79594C5.82671 5.57982 4.56895 7.92875 5.14832 10.2127C5.28902 10.777 5.22358 11.373 4.96378 11.8934L4.96272 11.8944L4.75212 12.3157C3.00877 15.8161 2.01445 19.6416 1.83262 23.5478C1.82012 23.6236 1.81601 23.7004 1.82037 23.777C1.69383 26.6667 2.01313 29.5586 2.76704 32.3511L2.93073 32.9464C3.08688 33.522 3.0018 34.1364 2.6951 34.6479L0.646408 38.0608C-0.029595 39.1865 -0.183843 40.5502 0.223633 41.7984C0.63111 43.0466 1.56021 44.0566 2.77017 44.5666C2.77017 44.5666 22.9526 53.082 36.2254 58.6821C36.2508 58.6915 36.2733 58.706 36.2994 58.7134C40.8358 60.6274 44.5533 62.196 46.3687 62.9619C46.4235 62.9911 46.4808 63.0153 46.54 63.0341C47.1908 63.3088 47.5594 63.4643 47.5714 63.4693C48.4006 63.8204 49.292 64.0009 50.1924 64C51.8438 63.9642 53.4472 63.4379 54.7986 62.4883C57.6614 60.4883 59.7038 57.5201 60.5488 54.1318C60.6737 53.9607 60.7435 53.7556 60.7487 53.5439C60.7423 53.4603 60.7256 53.3779 60.6992 53.2984C60.7595 52.8886 60.7903 52.475 60.7914 52.0608C60.7883 51.1855 60.7879 50.3101 60.7903 49.4345L60.7914 48.5597L60.9301 48.4216ZM47.7027 60.0163L46.7305 60.7967C44.7751 59.9717 41.2655 58.4909 37.055 56.7144L17.5604 43.7222C15.564 42.3921 13.3736 41.3792 11.0672 40.7195C8.4196 39.9594 5.94652 38.6881 3.78752 36.9775L4.52593 35.7473C5.13081 34.7353 5.29863 33.521 4.99089 32.3829L4.8272 31.7876C4.38637 30.1594 4.10459 28.4923 3.98583 26.8097C10.2506 34.3556 17.5051 41.0214 25.5529 46.6268L34.6578 52.9641C35.0188 53.2176 35.4491 53.3537 35.8902 53.3541C36.2249 53.3544 36.5548 53.2747 36.8525 53.1216L41.3763 50.8706C42.0095 50.5486 42.4437 49.9358 42.5377 49.2317C42.6316 48.5276 42.3731 47.8223 41.8465 47.3456L38.7265 44.5326L48.1802 48.1724C48.3989 48.2566 48.623 48.32 48.8444 48.3939V50.6381C48.8413 51.5196 49.3788 52.3129 50.1987 52.6368L51.896 53.3159C51.297 55.9597 49.8187 58.3219 47.7027 60.0163ZM50.5511 14.3555C50.6914 14.4201 50.844 14.4535 50.9984 14.4535H55.0118C55.1711 14.8185 55.3113 15.1915 55.4351 15.5717H51.9398C51.341 15.5723 50.7697 15.8233 50.3642 16.264L42.8224 12.925C42.2531 12.6723 41.7659 12.2653 41.4159 11.75L39.9292 9.45528L50.5511 14.3555ZM53.6236 47.0491C52.0247 47.0503 50.4393 46.7556 48.9476 46.18L48.6419 46.0623L37.0151 37.3759C36.2952 36.8396 35.711 36.142 35.3094 35.3391C34.5305 33.7855 34.492 31.9638 35.2047 30.3787C35.9173 28.7935 37.3055 27.6132 38.9846 27.1647L48.7998 24.553H59.4252C59.628 24.7578 59.7421 25.0342 59.7426 25.3225V46.1321C59.7418 46.4241 59.6261 46.7041 59.4204 46.9114L59.2825 47.049L53.6236 47.0491ZM56.0448 17.7069L56.35 18.8257L52.6488 18.8198L51.9398 17.7068L56.0448 17.7069ZM43.8249 15.7044L49.893 18.3911C49.9538 18.5779 50.0399 18.7554 50.1487 18.9189L50.8723 20.0042C51.2712 20.604 51.9441 20.964 52.6645 20.9629H56.9333L57.3303 22.4178H39.8468C36.8956 22.297 33.9593 21.9324 31.0682 21.3278L23.8824 19.8888L22.5742 18.8678C19.5732 16.5392 17.0968 13.6043 15.3063 10.2544C18.2546 13.1082 21.6707 15.4349 25.4059 17.1334L28.2115 18.4101C28.8427 18.685 29.5436 18.7571 30.2175 18.6165L43.8249 15.7044ZM21.0614 21.5014L23.09 21.9076C23.1476 21.9245 23.2065 21.9363 23.2662 21.9429L26.0501 22.5004V23.8185C26.0515 25.0796 25.4213 26.2575 24.3716 26.9562C23.8347 27.3139 23.4865 27.8935 23.4229 28.5354C23.3593 29.1774 23.5869 29.814 24.0432 30.2701L25.091 31.3184C25.7069 31.9312 26.0522 32.7647 26.0501 33.6335V36.4941C22.6037 34.285 19.5269 31.5467 16.9327 28.3799C15.7934 26.9878 15.6509 25.0302 16.5767 23.4879C17.5025 21.9455 19.2971 21.1506 21.0614 21.5014V21.5014ZM26.6006 29.8087L25.556 28.7327C27.2004 27.6386 28.1875 25.7937 28.1854 23.8185V22.928L30.6491 23.4213C33.6782 24.0533 36.7548 24.4319 39.8468 24.553H40.4971L38.4341 25.102C35.5045 25.8837 33.2792 28.2705 32.7043 31.2475C32.1293 34.2246 33.306 37.2684 35.7338 39.0847L41.2792 43.2276L33.0845 40.0725C31.3999 39.4201 29.7629 38.6509 28.1854 37.7704V33.6335C28.1891 32.1981 27.6185 30.8209 26.6006 29.8087ZM50.9796 50.6381V48.9474C51.8523 49.1036 52.737 49.1829 53.6236 49.1843H58.6554L58.6552 49.4313C58.6541 50.3108 58.6545 51.1902 58.6562 52.0696C58.6567 52.2003 58.6292 52.3416 58.6208 52.476L55.541 52.4752L50.9796 50.6381ZM53.8298 12.3182H51.2329L40.8248 7.51654C40.6752 7.45618 40.5194 7.41285 40.3602 7.38736L33.6259 2.48849C39.8294 3.32162 45.7366 5.65322 50.8367 9.28169C52.0015 10.1144 53.014 11.1416 53.8298 12.3182ZM15.5972 4.369C19.0696 3.12939 22.7024 2.39639 26.3838 2.19259C27.4346 2.13427 28.4842 2.12027 29.5327 2.15056L38.0963 8.38009C37.66 9.07933 37.6731 9.96913 38.1297 10.6553L39.6393 12.9344C39.9588 13.4041 40.3504 13.8205 40.7997 14.168L29.7701 16.5287C29.5385 16.5773 29.2975 16.5532 29.08 16.4599L26.2889 15.1895C21.2903 12.909 16.9235 9.44349 13.5674 5.09347L15.5972 4.369ZM6.66216 13.2706L6.87173 12.8505C7.36169 11.8741 7.48488 10.7542 7.2189 9.69461C6.91091 8.47688 7.58167 7.22509 8.76616 6.8071L11.2087 5.9353L11.4623 6.69658C13.0768 11.5571 15.9438 15.9062 19.7744 19.3057C17.391 19.4733 15.3002 20.9564 14.3542 23.1504C13.4081 25.3444 13.765 27.8829 15.2792 29.7311C19.7934 35.2497 25.6648 39.5 32.3172 42.0649L33.1604 42.3896L40.4171 48.9627L35.8798 51.2131L26.7727 44.8742C18.1618 38.8796 10.4806 31.6497 3.97619 23.4171C4.17251 19.8875 5.08645 16.4351 6.66216 13.2706ZM2.13522 40.3931C2.1351 39.9587 2.25332 39.5325 2.47718 39.1603L2.6857 38.813C5.00896 40.6142 7.65329 41.9576 10.478 42.7718C12.5733 43.3712 14.5631 44.2913 16.377 45.4992L26.562 52.2872C15.1775 47.4839 3.60006 42.5992 3.60006 42.5992C2.71201 42.226 2.13459 41.3564 2.13522 40.3931ZM53.6142 60.7117C52.2955 61.6898 50.6185 62.0507 49.0142 61.7016L49.0362 61.6839C51.4381 59.7589 53.1447 57.1013 53.8956 54.1162L54.7465 54.4566C55.0013 54.5593 55.2735 54.6119 55.5482 54.6114H58.1785C57.3224 57.0668 55.7282 59.1975 53.6142 60.7117Z" fill="#6666CC"></path></svg> 